<svg width="25" height="25" viewBox="0 0 25 25" fill="none" xmlns="http://www.w3.org/2000/svg">
<g clip-path="url(#clip0_570_24087)">
<path d="M22.3123 0.734375H2.7759C2.25793 0.734892 1.76131 0.940887 1.39504 1.30715C1.02878 1.67342 0.822783 2.17003 0.822266 2.68801L0.822266 22.2244C0.822783 22.7424 1.02878 23.239 1.39504 23.6053C1.76131 23.9715 2.25793 24.1775 2.7759 24.178H22.3123C22.8303 24.1775 23.3269 23.9715 23.6931 23.6053C24.0594 23.239 24.2654 22.7424 24.2659 22.2244V2.68801C24.2654 2.17003 24.0594 1.67342 23.6931 1.30715C23.3269 0.940887 22.8303 0.734892 22.3123 0.734375ZM1.60372 2.68801C1.60372 2.37713 1.72722 2.07898 1.94705 1.85915C2.16687 1.63933 2.46502 1.51583 2.7759 1.51583H8.34377C6.81283 2.10788 5.42247 3.01325 4.26181 4.17391C3.10114 5.33458 2.19577 6.72494 1.60372 8.25588V2.68801ZM12.5441 1.51583C18.5867 1.51583 23.4845 6.4136 23.4845 12.4562C23.4845 18.4988 18.5867 23.3966 12.5441 23.3966C6.50149 23.3966 1.60372 18.4988 1.60372 12.4562C1.61056 6.41653 6.50442 1.52267 12.5441 1.51583ZM2.7759 23.3966C2.46502 23.3966 2.16687 23.2731 1.94705 23.0533C1.72722 22.8334 1.60372 22.5353 1.60372 22.2244V16.6565C2.19577 18.1875 3.10114 19.5778 4.26181 20.7385C5.42247 21.8992 6.81283 22.8045 8.34377 23.3966H2.7759ZM23.4845 22.2244C23.4845 22.5353 23.361 22.8334 23.1411 23.0533C22.9213 23.2731 22.6232 23.3966 22.3123 23.3966H16.7444C18.2754 22.8045 19.6657 21.8992 20.8264 20.7385C21.9871 19.5778 22.8924 18.1875 23.4845 16.6565V22.2244ZM16.7444 1.51583H22.3123C22.6232 1.51583 22.9213 1.63933 23.1411 1.85915C23.361 2.07898 23.4845 2.37713 23.4845 2.68801V8.25588C22.8924 6.72494 21.9871 5.33458 20.8264 4.17391C19.6657 3.01325 18.2754 2.10788 16.7444 1.51583Z" fill="#49DCFF"/>
<path d="M3.16242 1.90625C2.85154 1.90625 2.55339 2.02975 2.33356 2.24957C2.11373 2.4694 1.99023 2.76755 1.99023 3.07843C1.99023 3.38932 2.11373 3.68746 2.33356 3.90729C2.55339 4.12712 2.85154 4.25062 3.16242 4.25062C3.4733 4.25062 3.77145 4.12712 3.99128 3.90729C4.2111 3.68746 4.3346 3.38932 4.3346 3.07843C4.3346 2.76755 4.2111 2.4694 3.99128 2.24957C3.77145 2.02975 3.4733 1.90625 3.16242 1.90625ZM3.16242 3.46916C3.05879 3.46916 2.95941 3.42799 2.88613 3.35472C2.81286 3.28144 2.77169 3.18206 2.77169 3.07843C2.77169 2.97481 2.81286 2.87542 2.88613 2.80215C2.95941 2.72887 3.05879 2.68771 3.16242 2.68771C3.26604 2.68771 3.36543 2.72887 3.4387 2.80215C3.51198 2.87542 3.55314 2.97481 3.55314 3.07843C3.55314 3.18206 3.51198 3.28144 3.4387 3.35472C3.36543 3.42799 3.26604 3.46916 3.16242 3.46916ZM3.16242 20.6612C3.00848 20.6612 2.85606 20.6915 2.71384 20.7504C2.57163 20.8093 2.44241 20.8957 2.33356 21.0045C2.22471 21.1133 2.13837 21.2426 2.07946 21.3848C2.02055 21.527 1.99023 21.6794 1.99023 21.8334C1.99023 21.9873 2.02055 22.1397 2.07946 22.2819C2.13837 22.4241 2.22471 22.5534 2.33356 22.6622C2.44241 22.7711 2.57163 22.8574 2.71384 22.9163C2.85606 22.9752 3.00848 23.0055 3.16242 23.0055C3.4733 23.0055 3.77145 22.882 3.99128 22.6622C4.2111 22.4424 4.3346 22.1442 4.3346 21.8334C4.3346 21.5225 4.2111 21.2243 3.99128 21.0045C3.77145 20.7847 3.4733 20.6612 3.16242 20.6612ZM3.16242 22.2241C3.05879 22.2241 2.95941 22.1829 2.88613 22.1096C2.81286 22.0364 2.77169 21.937 2.77169 21.8334C2.77169 21.7297 2.81286 21.6303 2.88613 21.5571C2.95941 21.4838 3.05879 21.4426 3.16242 21.4426C3.26604 21.4426 3.36543 21.4838 3.4387 21.5571C3.51198 21.6303 3.55314 21.7297 3.55314 21.8334C3.55314 21.937 3.51198 22.0364 3.4387 22.1096C3.36543 22.1829 3.26604 22.2241 3.16242 22.2241ZM21.9173 23.0055C22.0713 23.0055 22.2237 22.9752 22.3659 22.9163C22.5081 22.8574 22.6374 22.7711 22.7462 22.6622C22.855 22.5534 22.9414 22.4241 23.0003 22.2819C23.0592 22.1397 23.0895 21.9873 23.0895 21.8334C23.0895 21.6794 23.0592 21.527 23.0003 21.3848C22.9414 21.2426 22.855 21.1133 22.7462 21.0045C22.6374 20.8957 22.5081 20.8093 22.3659 20.7504C22.2237 20.6915 22.0713 20.6612 21.9173 20.6612C21.6065 20.6612 21.3083 20.7847 21.0885 21.0045C20.8687 21.2243 20.7452 21.5225 20.7452 21.8334C20.7452 22.1442 20.8687 22.4424 21.0885 22.6622C21.3083 22.882 21.6065 23.0055 21.9173 23.0055ZM21.9173 21.4426C22.021 21.4426 22.1204 21.4838 22.1936 21.5571C22.2669 21.6303 22.3081 21.7297 22.3081 21.8334C22.3081 21.937 22.2669 22.0364 22.1936 22.1096C22.1204 22.1829 22.021 22.2241 21.9173 22.2241C21.8137 22.2241 21.7143 22.1829 21.6411 22.1096C21.5678 22.0364 21.5266 21.937 21.5266 21.8334C21.5266 21.7297 21.5678 21.6303 21.6411 21.5571C21.7143 21.4838 21.8137 21.4426 21.9173 21.4426ZM21.9173 1.90625C21.7634 1.90625 21.611 1.93657 21.4688 1.99548C21.3266 2.05438 21.1973 2.14073 21.0885 2.24957C20.9796 2.35842 20.8933 2.48764 20.8344 2.62986C20.7755 2.77207 20.7452 2.9245 20.7452 3.07843C20.7452 3.23237 20.7755 3.38479 20.8344 3.52701C20.8933 3.66922 20.9796 3.79844 21.0885 3.90729C21.1973 4.01614 21.3266 4.10248 21.4688 4.16139C21.611 4.2203 21.7634 4.25062 21.9173 4.25062C22.2282 4.25062 22.5264 4.12712 22.7462 3.90729C22.966 3.68746 23.0895 3.38932 23.0895 3.07843C23.0895 2.76755 22.966 2.4694 22.7462 2.24957C22.5264 2.02975 22.2282 1.90625 21.9173 1.90625ZM21.9173 3.46916C21.8137 3.46916 21.7143 3.42799 21.6411 3.35472C21.5678 3.28144 21.5266 3.18206 21.5266 3.07843C21.5266 2.97481 21.5678 2.87542 21.6411 2.80215C21.7143 2.72887 21.8137 2.68771 21.9173 2.68771C22.021 2.68771 22.1204 2.72887 22.1936 2.80215C22.2669 2.87542 22.3081 2.97481 22.3081 3.07843C22.3081 3.18206 22.2669 3.28144 22.1936 3.35472C22.1204 3.42799 22.021 3.46916 21.9173 3.46916ZM2.63787 11.1274C2.68509 11.1713 2.74245 11.2029 2.80483 11.2193C2.86722 11.2356 2.93268 11.2363 2.99538 11.2212C4.88241 10.7683 6.87058 11.0377 8.56911 11.9763C6.3485 12.2184 4.31113 13.3209 2.89379 15.0474C2.85261 15.0971 2.82437 15.1561 2.81158 15.2194C2.7988 15.2826 2.80187 15.348 2.82053 15.4098C3.39936 17.324 4.53226 19.0239 6.07627 20.2949C6.12601 20.3364 6.1853 20.3649 6.24879 20.3778C6.31228 20.3907 6.37799 20.3876 6.43999 20.3688C6.502 20.35 6.55836 20.3161 6.60399 20.2701C6.64963 20.2241 6.68312 20.1675 6.70143 20.1054C7.2522 18.2443 8.47947 16.6567 10.1418 15.655C9.6605 16.739 9.41256 17.9122 9.41406 19.0983C9.41406 20.1259 9.59966 21.1447 9.96108 22.1069C9.98357 22.1673 10.0207 22.2212 10.0691 22.2638C10.1175 22.3065 10.1757 22.3364 10.2385 22.3511C12.1855 22.8041 14.2229 22.6726 16.0955 21.973C16.156 21.9504 16.2099 21.9132 16.2524 21.8647C16.295 21.8161 16.3248 21.7578 16.3393 21.6949C16.3538 21.6321 16.3526 21.5665 16.3356 21.5043C16.3186 21.442 16.2865 21.3849 16.242 21.3381C14.9063 19.9304 14.1456 18.0739 14.1096 16.1336C15.4292 17.9355 17.4019 19.149 19.6052 19.5144C19.6688 19.5249 19.734 19.5195 19.795 19.4987C19.8561 19.478 19.911 19.4424 19.9549 19.3952C21.3216 17.936 22.2272 16.1058 22.5581 14.1341C22.5688 14.0704 22.5635 14.0051 22.5428 13.9439C22.522 13.8828 22.4865 13.8278 22.4392 13.7837C22.392 13.7397 22.3346 13.7081 22.2722 13.6917C22.2098 13.6752 22.1442 13.6745 22.0814 13.6896C20.1945 14.1425 18.2065 13.8735 16.5077 12.9355C18.7283 12.6923 20.7656 11.5901 22.184 9.8644C22.2252 9.81454 22.2533 9.75524 22.266 9.69182C22.2786 9.6284 22.2753 9.56284 22.2563 9.50102C21.678 7.58753 20.5462 5.88808 19.0035 4.61692C18.9538 4.57585 18.8946 4.54772 18.8314 4.53506C18.7681 4.5224 18.7027 4.5256 18.641 4.54436C18.5793 4.56313 18.5232 4.59688 18.4777 4.64261C18.4322 4.68834 18.3987 4.74462 18.3803 4.80643C17.8301 6.6672 16.6035 8.25476 14.9419 9.25681C15.8407 7.21171 15.9042 4.89618 15.1187 2.80492C15.0962 2.74449 15.0591 2.69056 15.0107 2.64795C14.9623 2.60534 14.9041 2.57537 14.8413 2.56072C12.8942 2.10843 10.857 2.23992 8.98426 2.93875C8.92381 2.96136 8.8699 2.99859 8.82735 3.04712C8.78481 3.09565 8.75494 3.15396 8.74043 3.21685C8.72592 3.27974 8.72721 3.34524 8.74419 3.40751C8.76117 3.46978 8.79331 3.52687 8.83774 3.57368C10.1738 4.98124 10.9348 6.8378 10.9711 8.77817C9.65143 6.97639 7.6788 5.76286 5.47553 5.3974C5.41194 5.38664 5.34669 5.39171 5.28553 5.41215C5.22437 5.4326 5.16918 5.46779 5.12485 5.51462C3.75685 6.97436 2.85053 8.80568 2.51967 10.7787C2.50919 10.8421 2.5145 10.907 2.53511 10.9679C2.55573 11.0287 2.59102 11.0835 2.63787 11.1274ZM12.5399 9.33008C13.2775 9.33002 13.9914 9.59101 14.5551 10.0668C15.1188 10.5426 15.4959 11.2026 15.6197 11.9298C15.7435 12.657 15.6059 13.4045 15.2314 14.04C14.8568 14.6755 14.2695 15.158 13.5734 15.402L13.5675 15.4049C13.1379 15.5559 12.6805 15.6112 12.2273 15.5669C11.7741 15.5226 11.3361 15.3799 10.9438 15.1487C10.5516 14.9174 10.2146 14.6033 9.95637 14.2282C9.69819 13.8532 9.52507 13.4262 9.44913 12.9772C9.37318 12.5283 9.39624 12.0681 9.51669 11.629C9.63714 11.1899 9.85208 10.7824 10.1465 10.435C10.4409 10.0876 10.8076 9.80874 11.221 9.61789C11.6344 9.42703 12.0845 9.32881 12.5399 9.33008ZM6.14172 19.3132C4.9872 18.2357 4.12367 16.8839 3.63129 15.3834C4.19667 14.731 4.86683 14.1774 5.61423 13.7453C6.54506 13.206 7.57864 12.8679 8.64823 12.7528C8.7127 13.6066 9.0585 14.4144 9.62896 15.0523C8.02788 16.0485 6.80167 17.5467 6.14172 19.3132ZM10.6214 21.6341C9.98227 19.7858 10.065 17.7643 10.8529 15.9744C11.6233 16.3482 12.4958 16.456 13.334 16.2811C13.3972 18.1636 14.081 19.9725 15.2789 21.426C13.7686 21.886 12.1667 21.9575 10.6214 21.6341ZM21.679 14.5688C21.3225 16.1073 20.5833 17.5308 19.53 18.7075C17.6096 18.3399 15.9015 17.2543 14.7534 15.6716C15.4548 15.1873 15.9794 14.4878 16.2479 13.6789C17.9102 14.5665 19.8194 14.8793 21.678 14.5688H21.679ZM18.938 5.59863C20.0926 6.6761 20.9561 8.02786 21.4485 9.52837C20.8831 10.1807 20.2129 10.7344 19.4655 11.1665C18.5348 11.706 17.5012 12.0441 16.4315 12.1589C16.367 11.3053 16.0222 10.497 15.4508 9.85951C17.0519 8.86331 18.2781 7.36507 18.938 5.59863ZM14.4584 3.2777C15.0975 5.12598 15.0148 7.14749 14.2268 8.93739C13.4564 8.56371 12.5839 8.45584 11.7457 8.63067C11.6828 6.74827 10.9994 4.93947 9.80186 3.48577C11.3118 3.02599 12.9134 2.95443 14.4584 3.2777ZM4.41861 7.76716C4.74096 7.20842 5.12192 6.68485 5.55172 6.20425C7.47143 6.57101 9.17902 7.65607 10.3264 9.23825C9.62498 9.72249 9.10034 10.422 8.83188 11.231C7.16967 10.3441 5.26094 10.0316 3.40271 10.3421C3.61183 9.43815 3.95421 8.57036 4.41861 7.76716Z" fill="#49DCFF"/>
</g>
<defs>
<clipPath id="clip0_570_24087">
<rect width="23.4437" height="23.4437" fill="white" transform="translate(0.822266 0.734375)"/>
</clipPath>
</defs>
</svg>
