<svg width="25" height="25" viewBox="0 0 25 25" fill="none" xmlns="http://www.w3.org/2000/svg">
<g clip-path="url(#clip0_570_24075)">
<path d="M20.7494 3.01035V0.789062H19.9679V2.77396C19.8386 2.75427 19.708 2.74383 19.5772 2.7427H18.7957V0.789062H18.0143V2.7427H16.8421V0.789062H16.0606V2.7427H14.8885V0.789062H14.107V2.7427H12.9348V0.789062H12.1534V2.7427H10.9812V0.789062H10.1997V2.7427H9.02755V0.789062H8.24609V2.7427H7.07391V0.789062H6.29245V2.7427H5.511C5.38018 2.74383 5.2496 2.75427 5.12027 2.77396V0.789062H4.33881V3.01035C3.77167 3.28131 3.31452 3.73846 3.04355 4.30561H0.822266V5.08707H2.80716C2.78748 5.2164 2.77703 5.34697 2.7759 5.47779V6.25925H0.822266V7.0407H2.7759V8.21289H0.822266V8.99434H2.7759V10.1665H0.822266V10.948H2.7759V12.1202H0.822266V12.9016H2.7759V14.0738H0.822266V14.8553H2.7759V16.0274H0.822266V16.8089H2.7759V17.9811H0.822266V18.7625H2.7759V19.544C2.77688 19.6749 2.78763 19.8058 2.80716 19.9347H0.822266V20.7162H3.04355C3.31413 21.2827 3.77128 21.7409 4.33881 22.0114V24.2327H5.12027V22.2478C5.24921 22.2674 5.3801 22.2771 5.511 22.2791H6.29245V24.2327H7.07391V22.2791H8.24609V24.2327H9.02755V22.2791H10.1997V24.2327H10.9812V22.2791H12.1534V24.2327H12.9348V22.2791H14.107V24.2327H14.8885V22.2791H16.0606V24.2327H16.8421V22.2791H18.0143V24.2327H18.7957V22.2791H19.5772C19.7081 22.2781 19.839 22.2674 19.9679 22.2478V24.2327H20.7494V22.0114C21.3165 21.7405 21.7737 21.2833 22.0446 20.7162H24.2659V19.9347H22.281C22.3006 19.8048 22.3103 19.6749 22.3123 19.544V18.7625H24.2659V17.9811H22.3123V16.8089H24.2659V16.0274H22.3123V14.8553H24.2659V14.0738H22.3123V12.9016H24.2659V12.1202H22.3123V10.948H24.2659V10.1665H22.3123V8.99434H24.2659V8.21289H22.3123V7.0407H24.2659V6.25925H22.3123V5.47779C22.3112 5.34697 22.3008 5.2164 22.281 5.08707H24.2659V4.30561H22.0446C21.7737 3.73846 21.3165 3.28131 20.7494 3.01035ZM21.5308 19.544C21.5301 20.0619 21.324 20.5584 20.9578 20.9246C20.5916 21.2908 20.0951 21.4969 19.5772 21.4976H5.511C4.9931 21.4969 4.49663 21.2908 4.13042 20.9246C3.76421 20.5584 3.55813 20.0619 3.55736 19.544V5.47779C3.55813 4.9599 3.76421 4.46343 4.13042 4.09722C4.49663 3.73101 4.9931 3.52493 5.511 3.52416H19.5772C20.0951 3.52493 20.5916 3.73101 20.9578 4.09722C21.324 4.46343 21.5301 4.9599 21.5308 5.47779V19.544Z" fill="#49DCFF"/>
<path d="M19.1854 4.70312H5.9007C5.58982 4.70312 5.29167 4.82662 5.07184 5.04645C4.85201 5.26628 4.72852 5.56443 4.72852 5.87531V19.16C4.72852 19.4709 4.85201 19.7691 5.07184 19.9889C5.29167 20.2087 5.58982 20.3322 5.9007 20.3322H19.1854C19.4963 20.3322 19.7945 20.2087 20.0143 19.9889C20.2341 19.7691 20.3576 19.4709 20.3576 19.16V5.87531C20.3576 5.56443 20.2341 5.26628 20.0143 5.04645C19.7945 4.82662 19.4963 4.70312 19.1854 4.70312ZM19.5762 19.16C19.5762 19.2637 19.535 19.3631 19.4617 19.4363C19.3884 19.5096 19.2891 19.5508 19.1854 19.5508H5.9007C5.79707 19.5508 5.69769 19.5096 5.62441 19.4363C5.55114 19.3631 5.50997 19.2637 5.50997 19.16V5.87531C5.50997 5.77168 5.55114 5.6723 5.62441 5.59902C5.69769 5.52575 5.79707 5.48458 5.9007 5.48458H19.1854C19.2891 5.48458 19.3884 5.52575 19.4617 5.59902C19.535 5.6723 19.5762 5.77168 19.5762 5.87531V19.16Z" fill="#49DCFF"/>
<path d="M18.0128 6.26562H18.7943V7.04708H18.0128V6.26562ZM6.29102 17.9875H7.07247V18.7689H6.29102V17.9875ZM6.29102 7.04708V8.21926H7.07247V7.04708H8.24465V6.26562H7.07247C6.86522 6.26562 6.66645 6.34796 6.5199 6.49451C6.37335 6.64106 6.29102 6.83983 6.29102 7.04708ZM18.0128 17.9875H16.8407V18.7689H18.7943V16.8153H18.0128V17.9875Z" fill="#49DCFF"/>
</g>
<defs>
<clipPath id="clip0_570_24075">
<rect width="23.4437" height="23.4437" fill="white" transform="translate(0.822266 0.789062)"/>
</clipPath>
</defs>
</svg>
