<svg width="24" height="25" viewBox="0 0 24 25" fill="none" xmlns="http://www.w3.org/2000/svg">
    <g clip-path="url(#clip0_3_11764)">
        <g clip-path="url(#clip1_3_11764)">
            <path d="M22.8 0.349609H1.2C0.88174 0.349609 0.576516 0.476038 0.351472 0.701081C0.126428 0.926125 0 1.23135 0 1.54961L0 23.1496C0 23.4679 0.126428 23.7731 0.351472 23.9981C0.576516 24.2232 0.88174 24.3496 1.2 24.3496H22.8C23.1183 24.3496 23.4235 24.2232 23.6485 23.9981C23.8736 23.7731 24 23.4679 24 23.1496V1.54961C24 1.23135 23.8736 0.926125 23.6485 0.701081C23.4235 0.476038 23.1183 0.349609 22.8 0.349609ZM23.2 23.1496C23.2 23.2557 23.1579 23.3574 23.0828 23.4325C23.0078 23.5075 22.9061 23.5496 22.8 23.5496H1.2C1.09391 23.5496 0.992172 23.5075 0.917157 23.4325C0.842143 23.3574 0.8 23.2557 0.8 23.1496V1.54961C0.8 1.32961 0.98 1.14961 1.2 1.14961H22.8C23.02 1.14961 23.2 1.32961 23.2 1.54961V23.1496Z" fill="#49DCFF"/>
            <path d="M21.2 2.74805H8.4C8.29391 2.74805 8.19217 2.79019 8.11716 2.8652C8.04214 2.94022 8 3.04196 8 3.14805V4.74805C8 4.96805 8.179 5.14805 8.4 5.14805H21.2C21.3061 5.14805 21.4078 5.1059 21.4828 5.03089C21.5579 4.95587 21.6 4.85413 21.6 4.74805V3.14805C21.6 3.04196 21.5579 2.94022 21.4828 2.8652C21.4078 2.79019 21.3061 2.74805 21.2 2.74805ZM20.8 4.34805H8.8V3.54805H20.8V4.34805ZM21.2 5.94805H8.4C8.29391 5.94805 8.19217 5.99019 8.11716 6.0652C8.04214 6.14022 8 6.24196 8 6.34805V7.94805C8 8.16805 8.179 8.34805 8.4 8.34805H21.2C21.3061 8.34805 21.4078 8.3059 21.4828 8.23089C21.5579 8.15587 21.6 8.05413 21.6 7.94805V6.34805C21.6 6.24196 21.5579 6.14022 21.4828 6.0652C21.4078 5.99019 21.3061 5.94805 21.2 5.94805ZM20.8 7.54805H8.8V6.74805H20.8V7.54805ZM21.2 9.14805H8.4C8.34747 9.14805 8.29546 9.15839 8.24693 9.17849C8.1984 9.1986 8.1543 9.22806 8.11716 9.2652C8.08001 9.30235 8.05055 9.34644 8.03045 9.39497C8.01035 9.4435 8 9.49552 8 9.54805V11.148C8 11.368 8.179 11.548 8.4 11.548H21.2C21.3061 11.548 21.4078 11.5059 21.4828 11.4309C21.5579 11.3559 21.6 11.2541 21.6 11.148V9.54805C21.6 9.44196 21.5579 9.34022 21.4828 9.2652C21.4078 9.19019 21.3061 9.14805 21.2 9.14805ZM20.8 10.748H8.8V9.94805H20.8V10.748ZM20.4 13.148C20.0817 13.148 19.7765 13.2745 19.5515 13.4995C19.3264 13.7246 19.2 14.0298 19.2 14.348C19.2 14.6663 19.3264 14.9715 19.5515 15.1966C19.7765 15.4216 20.0817 15.548 20.4 15.548C20.7183 15.548 21.0235 15.4216 21.2485 15.1966C21.4736 14.9715 21.6 14.6663 21.6 14.348C21.6 14.0298 21.4736 13.7246 21.2485 13.4995C21.0235 13.2745 20.7183 13.148 20.4 13.148ZM20.4 14.748C20.2939 14.748 20.1922 14.7059 20.1172 14.6309C20.0421 14.5559 20 14.4541 20 14.348C20 14.242 20.0421 14.1402 20.1172 14.0652C20.1922 13.9902 20.2939 13.948 20.4 13.948C20.5061 13.948 20.6078 13.9902 20.6828 14.0652C20.7579 14.1402 20.8 14.242 20.8 14.348C20.8 14.4541 20.7579 14.5559 20.6828 14.6309C20.6078 14.7059 20.5061 14.748 20.4 14.748ZM20.4 16.348C20.2424 16.348 20.0864 16.3791 19.9408 16.4394C19.7952 16.4997 19.6629 16.5881 19.5515 16.6995C19.44 16.8109 19.3516 16.9432 19.2913 17.0888C19.231 17.2344 19.2 17.3905 19.2 17.548C19.2 17.7056 19.231 17.8617 19.2913 18.0073C19.3516 18.1529 19.44 18.2851 19.5515 18.3966C19.6629 18.508 19.7952 18.5964 19.9408 18.6567C20.0864 18.717 20.2424 18.748 20.4 18.748C20.7183 18.748 21.0235 18.6216 21.2485 18.3966C21.4736 18.1715 21.6 17.8663 21.6 17.548C21.6 17.2298 21.4736 16.9246 21.2485 16.6995C21.0235 16.4745 20.7183 16.348 20.4 16.348ZM20.4 17.948C20.2939 17.948 20.1922 17.9059 20.1172 17.8309C20.0421 17.7559 20 17.6541 20 17.548C20 17.442 20.0421 17.3402 20.1172 17.2652C20.1922 17.1902 20.2939 17.148 20.4 17.148C20.5061 17.148 20.6078 17.1902 20.6828 17.2652C20.7579 17.3402 20.8 17.442 20.8 17.548C20.8 17.6541 20.7579 17.7559 20.6828 17.8309C20.6078 17.9059 20.5061 17.948 20.4 17.948ZM20.4 19.548C20.0817 19.548 19.7765 19.6745 19.5515 19.8995C19.3264 20.1246 19.2 20.4298 19.2 20.748C19.2 21.0663 19.3264 21.3715 19.5515 21.5966C19.7765 21.8216 20.0817 21.948 20.4 21.948C20.7183 21.948 21.0235 21.8216 21.2485 21.5966C21.4736 21.3715 21.6 21.0663 21.6 20.748C21.6 20.4298 21.4736 20.1246 21.2485 19.8995C21.0235 19.6745 20.7183 19.548 20.4 19.548ZM20.4 21.148C20.2939 21.148 20.1922 21.1059 20.1172 21.0309C20.0421 20.9559 20 20.8541 20 20.748C20 20.642 20.0421 20.5402 20.1172 20.4652C20.1922 20.3902 20.2939 20.348 20.4 20.348C20.5061 20.348 20.6078 20.3902 20.6828 20.4652C20.7579 20.5402 20.8 20.642 20.8 20.748C20.8 20.8541 20.7579 20.9559 20.6828 21.0309C20.6078 21.1059 20.5061 21.148 20.4 21.148ZM17.6 13.148H10.4C10.1878 13.148 9.98434 13.2323 9.83431 13.3824C9.68429 13.5324 9.6 13.7359 9.6 13.948V21.148C9.6 21.3602 9.68429 21.5637 9.83431 21.7137C9.98434 21.8638 10.1878 21.948 10.4 21.948H17.6C17.8122 21.948 18.0157 21.8638 18.1657 21.7137C18.3157 21.5637 18.4 21.3602 18.4 21.148V13.948C18.4 13.7359 18.3157 13.5324 18.1657 13.3824C18.0157 13.2323 17.8122 13.148 17.6 13.148ZM17.6 21.148H10.4V13.948H17.6V21.148Z" fill="#49DCFF"/>
            <path d="M12.3984 19.948H15.5984C15.8106 19.948 16.0141 19.8638 16.1641 19.7137C16.3142 19.5637 16.3984 19.3602 16.3984 19.148V15.948C16.3984 15.7359 16.3142 15.5324 16.1641 15.3824C16.0141 15.2323 15.8106 15.148 15.5984 15.148H12.3984C12.1863 15.148 11.9828 15.2323 11.8328 15.3824C11.6827 15.5324 11.5984 15.7359 11.5984 15.948V19.148C11.5984 19.3602 11.6827 19.5637 11.8328 19.7137C11.9828 19.8638 12.1863 19.948 12.3984 19.948ZM12.3984 15.948H15.5984V19.148H12.3984V15.948ZM2.79844 11.548H6.79844C6.85097 11.548 6.90298 11.5377 6.95151 11.5176C7.00004 11.4975 7.04414 11.468 7.08128 11.4309C7.11842 11.3937 7.14789 11.3497 7.16799 11.3011C7.18809 11.2526 7.19844 11.2006 7.19844 11.148V7.14805C7.19844 7.04196 7.15629 6.94022 7.08128 6.8652C7.00627 6.79019 6.90452 6.74805 6.79844 6.74805H2.79844C2.69235 6.74805 2.59061 6.79019 2.51559 6.8652C2.44058 6.94022 2.39844 7.04196 2.39844 7.14805V11.148C2.39844 11.369 2.57844 11.548 2.79844 11.548ZM3.19844 7.54805H6.39844V10.748H3.19844V7.54805ZM2.79844 5.94805H6.79844C6.85097 5.94805 6.90298 5.9377 6.95151 5.9176C7.00004 5.8975 7.04414 5.86803 7.08128 5.83089C7.11842 5.79375 7.14789 5.74965 7.16799 5.70112C7.18809 5.65259 7.19844 5.60058 7.19844 5.54805V3.14805C7.19844 3.04196 7.15629 2.94022 7.08128 2.8652C7.00627 2.79019 6.90452 2.74805 6.79844 2.74805H2.79844C2.69235 2.74805 2.59061 2.79019 2.51559 2.8652C2.44058 2.94022 2.39844 3.04196 2.39844 3.14805V5.54805C2.39844 5.76805 2.57844 5.94805 2.79844 5.94805ZM3.19844 3.54805H6.39844V5.14805H3.19844V3.54805ZM7.59844 13.948H2.79844C2.69235 13.948 2.59061 13.9902 2.51559 14.0652C2.44058 14.1402 2.39844 14.242 2.39844 14.348V21.548C2.39844 21.769 2.57844 21.948 2.79844 21.948H7.59844C7.70452 21.948 7.80627 21.9059 7.88128 21.8309C7.95629 21.7559 7.99844 21.6541 7.99844 21.548V14.348C7.99844 14.242 7.95629 14.1402 7.88128 14.0652C7.80627 13.9902 7.70452 13.948 7.59844 13.948ZM5.59844 17.148H7.19844V18.748H5.59844V17.148ZM4.79844 18.748H3.19844V17.148H4.79844V18.748ZM7.19844 14.748V16.348H5.59844V14.748H7.19844ZM3.19844 14.748H4.79844V16.348H3.19844V14.748ZM3.19844 19.548H4.79844V21.148H3.19844V19.548ZM7.19844 21.148H5.59844V19.548H7.19844V21.148Z" fill="#49DCFF"/>
        </g>
    </g>
    <defs>
        <clipPath id="clip0_3_11764">
            <rect width="24" height="24" fill="white" transform="translate(0 0.349609)"/>
        </clipPath>
        <clipPath id="clip1_3_11764">
            <rect width="24" height="24" fill="white" transform="translate(0 0.349609)"/>
        </clipPath>
    </defs>
</svg>
