<svg width="25" height="17" viewBox="0 0 25 17" fill="none" xmlns="http://www.w3.org/2000/svg">
<path d="M3.55345 1.17208H1.20909C1.10546 1.17208 1.00608 1.13091 0.932801 1.05764C0.859525 0.984363 0.818359 0.88498 0.818359 0.781353C0.818359 0.677725 0.859525 0.578342 0.932801 0.505067C1.00608 0.431791 1.10546 0.390625 1.20909 0.390625H3.55345C3.65708 0.390625 3.75646 0.431791 3.82974 0.505067C3.90301 0.578342 3.94418 0.677725 3.94418 0.781353C3.94418 0.88498 3.90301 0.984363 3.82974 1.05764C3.75646 1.13091 3.65708 1.17208 3.55345 1.17208Z" fill="#49DCFF"/>
<path d="M3.55284 16.8012C3.44921 16.8012 3.34983 16.76 3.27655 16.6867C3.20328 16.6135 3.16211 16.5141 3.16211 16.4105V0.781353C3.16211 0.677725 3.20328 0.578342 3.27655 0.505067C3.34983 0.431791 3.44921 0.390625 3.55284 0.390625C3.65646 0.390625 3.75585 0.431791 3.82912 0.505067C3.9024 0.578342 3.94356 0.677725 3.94356 0.781353V16.4105C3.94356 16.5141 3.9024 16.6135 3.82912 16.6867C3.75585 16.76 3.65646 16.8012 3.55284 16.8012Z" fill="#49DCFF"/>
<path d="M3.55325 8.59478H1.99034C1.88671 8.59478 1.78733 8.55361 1.71405 8.48034C1.64078 8.40706 1.59961 8.30768 1.59961 8.20405V5.07823C1.59961 4.9746 1.64078 4.87522 1.71405 4.80194C1.78733 4.72867 1.88671 4.6875 1.99034 4.6875H3.55325C3.76815 4.6875 3.94398 4.86333 3.94398 5.07823V8.20405C3.94398 8.30768 3.90281 8.40706 3.82953 8.48034C3.75626 8.55361 3.65687 8.59478 3.55325 8.59478ZM2.38106 7.81332H3.16252V5.46896H2.38106V7.81332ZM3.55325 14.8464H1.99034C1.88671 14.8464 1.78733 14.8053 1.71405 14.732C1.64078 14.6587 1.59961 14.5593 1.59961 14.4557V11.3299C1.59961 11.2262 1.64078 11.1269 1.71405 11.0536C1.78733 10.9803 1.88671 10.9391 1.99034 10.9391H3.55325C3.76815 10.9391 3.94398 11.115 3.94398 11.3299V14.4557C3.94398 14.5593 3.90281 14.6587 3.82953 14.732C3.75626 14.8053 3.65687 14.8464 3.55325 14.8464ZM2.38106 14.065H3.16252V11.7206H2.38106V14.065ZM14.8843 16.8001H6.28834C6.18471 16.8001 6.08533 16.7589 6.01205 16.6856C5.93878 16.6123 5.89761 16.513 5.89761 16.4093V13.6742C5.89761 13.5706 5.93878 13.4712 6.01205 13.398C6.08533 13.3247 6.18471 13.2835 6.28834 13.2835H14.8843C14.988 13.2835 15.0874 13.3247 15.1606 13.398C15.2339 13.4712 15.2751 13.5706 15.2751 13.6742V16.4093C15.2751 16.513 15.2339 16.6123 15.1606 16.6856C15.0874 16.7589 14.988 16.8001 14.8843 16.8001ZM6.67907 16.0186H14.4936V14.065H6.67907V16.0186Z" fill="#49DCFF"/>
<path d="M8.24034 16.7974C8.13671 16.7974 8.03733 16.7562 7.96405 16.6829C7.89078 16.6097 7.84961 16.5103 7.84961 16.4067V15.2345C7.84961 15.1308 7.89078 15.0315 7.96405 14.9582C8.03733 14.8849 8.13671 14.8438 8.24034 14.8438C8.34396 14.8438 8.44335 14.8849 8.51662 14.9582C8.5899 15.0315 8.63106 15.1308 8.63106 15.2345V16.4067C8.63106 16.5103 8.5899 16.6097 8.51662 16.6829C8.44335 16.7562 8.34396 16.7974 8.24034 16.7974ZM12.9291 16.7974C12.8254 16.7974 12.7261 16.7562 12.6528 16.6829C12.5795 16.6097 12.5383 16.5103 12.5383 16.4067V15.2345C12.5383 15.1308 12.5795 15.0315 12.6528 14.9582C12.7261 14.8849 12.8254 14.8437 12.9291 14.8438C13.0327 14.8437 13.1321 14.8849 13.2054 14.9582C13.2786 15.0315 13.3198 15.1308 13.3198 15.2345V16.4067C13.3198 16.5103 13.2786 16.6097 13.2054 16.6829C13.1321 16.7562 13.0327 16.7974 12.9291 16.7974ZM18.79 16.7974C18.6864 16.7974 18.587 16.7562 18.5137 16.6829C18.4404 16.6097 18.3993 16.5103 18.3993 16.4067V15.2345C18.3993 15.1308 18.4404 15.0315 18.5137 14.9582C18.587 14.8849 18.6864 14.8437 18.79 14.8438C18.8936 14.8437 18.993 14.8849 19.0663 14.9582C19.1395 15.0315 19.1807 15.1308 19.1807 15.2345V16.4067C19.1807 16.5103 19.1395 16.6097 19.0663 16.6829C18.993 16.7562 18.8936 16.7974 18.79 16.7974ZM11.3662 16.7974C11.2625 16.7974 11.1631 16.7562 11.0899 16.6829C11.0166 16.6097 10.9754 16.5103 10.9754 16.4067V15.2345C10.9754 15.1308 11.0166 15.0315 11.0899 14.9582C11.1631 14.8849 11.2625 14.8437 11.3662 14.8438C11.4698 14.8437 11.5692 14.8849 11.6424 14.9582C11.7157 15.0315 11.7569 15.1308 11.7569 15.2345V16.4067C11.7569 16.458 11.7468 16.5088 11.7271 16.5562C11.7075 16.6036 11.6787 16.6467 11.6424 16.6829C11.6062 16.7192 11.5631 16.748 11.5157 16.7676C11.4683 16.7873 11.4175 16.7974 11.3662 16.7974ZM9.80325 16.7974C9.69962 16.7974 9.60024 16.7562 9.52696 16.6829C9.45369 16.6097 9.41252 16.5103 9.41252 16.4067V15.2345C9.41252 15.1308 9.45369 15.0315 9.52696 14.9582C9.60024 14.8849 9.69962 14.8437 9.80325 14.8438C9.90688 14.8437 10.0063 14.8849 10.0795 14.9582C10.1528 15.0315 10.194 15.1308 10.194 15.2345V16.4067C10.194 16.5103 10.1528 16.6097 10.0795 16.6829C10.0063 16.7562 9.90688 16.7974 9.80325 16.7974Z" fill="#49DCFF"/>
<path d="M20.3545 16.8005H17.2287C17.1251 16.8005 17.0257 16.7593 16.9524 16.686C16.8792 16.6128 16.838 16.5134 16.838 16.4097V13.6746C16.838 13.571 16.8792 13.4716 16.9524 13.3984C17.0257 13.3251 17.1251 13.2839 17.2287 13.2839H20.3545C20.4582 13.2839 20.5575 13.3251 20.6308 13.3984C20.7041 13.4716 20.7453 13.571 20.7453 13.6746V16.4097C20.7453 16.5134 20.7041 16.6128 20.6308 16.686C20.5575 16.7593 20.4582 16.8005 20.3545 16.8005ZM17.6194 16.019H19.9638V14.0654H17.6194V16.019ZM3.55325 3.90645H1.99034C1.88671 3.90645 1.78733 3.86529 1.71405 3.79201C1.64078 3.71874 1.59961 3.61936 1.59961 3.51573C1.59961 3.4121 1.64078 3.31272 1.71405 3.23944C1.78733 3.16617 1.88671 3.125 1.99034 3.125H3.55325C3.65687 3.125 3.75626 3.16617 3.82953 3.23944C3.90281 3.31272 3.94398 3.4121 3.94398 3.51573C3.94398 3.61936 3.90281 3.71874 3.82953 3.79201C3.75626 3.86529 3.65687 3.90645 3.55325 3.90645ZM3.55325 10.1581H1.99034C1.88671 10.1581 1.78733 10.1169 1.71405 10.0437C1.64078 9.97038 1.59961 9.871 1.59961 9.76737C1.59961 9.66374 1.64078 9.56436 1.71405 9.49108C1.78733 9.41781 1.88671 9.37664 1.99034 9.37664H3.55325C3.65687 9.37664 3.75626 9.41781 3.82953 9.49108C3.90281 9.56436 3.94398 9.66374 3.94398 9.76737C3.94398 9.871 3.90281 9.97038 3.82953 10.0437C3.75626 10.1169 3.65687 10.1581 3.55325 10.1581ZM9.02343 12.5025C7.88393 12.5012 6.79147 12.0479 5.98571 11.2422C5.17996 10.4364 4.72672 9.34396 4.72543 8.20446C4.72543 5.8347 6.65367 3.90645 9.02343 3.90645C11.3932 3.90645 13.3214 5.8347 13.3214 8.20446C13.3214 10.5742 11.3932 12.5025 9.02343 12.5025ZM9.02343 4.68791C8.0911 4.68894 7.19726 5.05977 6.538 5.71903C5.87874 6.37828 5.50792 7.27213 5.50689 8.20446C5.50689 10.1434 7.08445 11.721 9.02343 11.721C10.9624 11.721 12.54 10.1434 12.54 8.20446C12.54 6.26547 10.9624 4.68791 9.02343 4.68791Z" fill="#49DCFF"/>
<path d="M9.0258 9.76645C8.71669 9.76645 8.41451 9.67478 8.15749 9.50305C7.90048 9.33131 7.70015 9.08722 7.58186 8.80164C7.46357 8.51605 7.43262 8.2018 7.49292 7.89863C7.55323 7.59545 7.70208 7.31697 7.92066 7.09839C8.13923 6.87981 8.41772 6.73096 8.72089 6.67066C9.02407 6.61035 9.33832 6.6413 9.6239 6.7596C9.90949 6.87789 10.1536 7.07821 10.3253 7.33523C10.497 7.59225 10.5887 7.89442 10.5887 8.20354C10.5887 9.06509 9.88736 9.76645 9.0258 9.76645ZM9.0258 7.42208C8.92312 7.42215 8.82145 7.44243 8.7266 7.48179C8.63176 7.52115 8.54559 7.5788 8.47303 7.65145C8.40046 7.72411 8.34292 7.81034 8.30368 7.90524C8.26444 8.00013 8.24428 8.10183 8.24435 8.20451C8.24441 8.3072 8.2647 8.40887 8.30406 8.50371C8.34341 8.59856 8.40106 8.68472 8.47372 8.75729C8.54637 8.82985 8.63261 8.8874 8.7275 8.92663C8.8224 8.96587 8.92409 8.98603 9.02678 8.98597C9.23416 8.98584 9.433 8.90333 9.57955 8.7566C9.7261 8.60986 9.80836 8.41092 9.80823 8.20354C9.8081 7.99615 9.7256 7.79731 9.57886 7.65076C9.43213 7.50421 9.23319 7.42195 9.0258 7.42208Z" fill="#49DCFF"/>
<path d="M21.917 14.0656H3.55284C3.44921 14.0656 3.34983 14.0244 3.27655 13.9511C3.20328 13.8779 3.16211 13.7785 3.16211 13.6749V2.73448C3.16211 2.51958 3.33794 2.34375 3.55284 2.34375H21.917C23.2113 2.34375 24.2614 3.39481 24.2614 4.68812V11.7212C24.2614 13.0145 23.2103 14.0656 21.917 14.0656ZM3.94356 13.2841H21.917C22.7796 13.2841 23.4799 12.5828 23.4799 11.7212V4.68812C23.4799 4.27361 23.3153 3.87607 23.0222 3.58297C22.7291 3.28987 22.3315 3.12521 21.917 3.12521H3.94356V13.2841Z" fill="#49DCFF"/>
<path d="M9.02631 7.42259C8.92269 7.42259 8.8233 7.38143 8.75003 7.30815C8.67675 7.23488 8.63559 7.13549 8.63559 7.03187C8.63559 6.18985 7.56109 5.46896 6.68195 5.46896C6.57832 5.46896 6.47894 5.42779 6.40566 5.35451C6.33239 5.28124 6.29122 5.18185 6.29122 5.07823C6.29122 4.9746 6.33239 4.87522 6.40566 4.80194C6.47894 4.72867 6.57832 4.6875 6.68195 4.6875C7.94693 4.6875 9.41704 5.71121 9.41704 7.03187C9.41704 7.13549 9.37588 7.23488 9.3026 7.30815C9.22932 7.38143 9.12994 7.42259 9.02631 7.42259ZM11.3707 11.7206C10.1057 11.7206 8.63559 10.6949 8.63559 9.37623C8.63559 9.2726 8.67675 9.17322 8.75003 9.09995C8.8233 9.02667 8.92269 8.9855 9.02631 8.9855C9.12994 8.9855 9.22932 9.02667 9.3026 9.09995C9.37588 9.17322 9.41704 9.2726 9.41704 9.37623C9.41704 10.2173 10.4915 10.9391 11.3707 10.9391C11.4743 10.9391 11.5737 10.9803 11.647 11.0536C11.7202 11.1269 11.7614 11.2262 11.7614 11.3299C11.7614 11.4335 11.7202 11.5329 11.647 11.6062C11.5737 11.6794 11.4743 11.7206 11.3707 11.7206ZM5.90049 10.9391C5.79687 10.9391 5.69748 10.898 5.62421 10.8247C5.55093 10.7514 5.50977 10.652 5.50977 10.5484C5.50977 9.28343 6.53347 7.81332 7.85413 7.81332C7.95776 7.81332 8.05714 7.85449 8.13042 7.92776C8.20369 8.00104 8.24486 8.10042 8.24486 8.20405C8.24486 8.30768 8.20369 8.40706 8.13042 8.48034C8.05714 8.55361 7.95776 8.59478 7.85413 8.59478C7.01211 8.59478 6.29122 9.66928 6.29122 10.5484C6.29122 10.652 6.25006 10.7514 6.17678 10.8247C6.1035 10.898 6.00412 10.9391 5.90049 10.9391ZM10.1985 8.59478C10.0949 8.59478 9.99549 8.55361 9.92221 8.48034C9.84894 8.40706 9.80777 8.30768 9.80777 8.20405C9.80777 8.10042 9.84894 8.00104 9.92221 7.92776C9.99549 7.85449 10.0949 7.81332 10.1985 7.81332C11.0405 7.81332 11.7614 6.73882 11.7614 5.85968C11.7614 5.75606 11.8026 5.65667 11.8758 5.5834C11.9491 5.51012 12.0485 5.46896 12.1521 5.46896C12.2558 5.46896 12.3551 5.51012 12.4284 5.5834C12.5017 5.65667 12.5429 5.75606 12.5429 5.85968C12.5429 7.12466 11.5192 8.59478 10.1985 8.59478Z" fill="#49DCFF"/>
<path d="M5.15513 8.04308C5.07768 8.04342 5.00188 8.02067 4.93741 7.97775C4.87295 7.93482 4.82273 7.87366 4.79317 7.80207C4.76361 7.73049 4.75605 7.65171 4.77146 7.57581C4.78687 7.49991 4.82454 7.43031 4.87966 7.37591C5.31435 6.94123 5.96784 6.63353 6.62817 6.55343C7.37348 6.46161 8.02795 6.65697 8.47045 7.09947C8.5407 7.17328 8.57934 7.27161 8.57812 7.3735C8.57691 7.47539 8.53594 7.57278 8.46395 7.64489C8.39197 7.71701 8.29466 7.75815 8.19277 7.75954C8.09088 7.76093 7.99248 7.72247 7.91855 7.65235C7.65285 7.38666 7.21817 7.26944 6.72292 7.32902C6.22963 7.38763 5.74806 7.6123 5.43254 7.92781C5.35894 8.0014 5.2592 8.04284 5.15513 8.04308ZM11.0668 9.87754C10.468 9.87754 9.9474 9.68218 9.57621 9.30904C9.50886 9.23471 9.47268 9.13733 9.47515 9.03706C9.47762 8.9368 9.51855 8.84132 9.58947 8.7704C9.66039 8.69947 9.75587 8.65854 9.85614 8.65607C9.95641 8.6536 10.0538 8.68979 10.1281 8.75713C10.3938 9.02185 10.8295 9.14005 11.3247 9.07948C11.817 9.02088 12.2996 8.79621 12.6141 8.48069C12.6874 8.40738 12.7869 8.36619 12.8906 8.36619C12.9942 8.36619 13.0937 8.40738 13.167 8.48069C13.2403 8.55401 13.2815 8.65345 13.2815 8.75713C13.2815 8.86082 13.2403 8.96026 13.167 9.03357C12.7323 9.46826 12.0788 9.77596 11.4185 9.85508C11.3019 9.86991 11.1844 9.87741 11.0668 9.87754ZM8.47143 12.4632C8.42003 12.4632 8.36914 12.4529 8.32169 12.4332C8.27425 12.4134 8.23119 12.3844 8.19499 12.3479C7.30022 11.4541 6.98569 9.69 7.91855 8.75616C7.95485 8.71985 7.99795 8.69106 8.04538 8.67141C8.09281 8.65176 8.14365 8.64165 8.19499 8.64165C8.24633 8.64165 8.29717 8.65176 8.3446 8.67141C8.39203 8.69106 8.43513 8.71985 8.47143 8.75616C8.50773 8.79246 8.53653 8.83556 8.55617 8.88299C8.57582 8.93042 8.58593 8.98126 8.58593 9.0326C8.58593 9.08394 8.57582 9.13477 8.55617 9.1822C8.53653 9.22964 8.50773 9.27273 8.47143 9.30904C7.87557 9.9049 8.12563 11.1738 8.74689 11.795C8.80187 11.8496 8.83941 11.9192 8.85474 11.9951C8.87007 12.071 8.86249 12.1498 8.83297 12.2214C8.80345 12.293 8.75333 12.3542 8.68896 12.3972C8.62458 12.4403 8.54887 12.4632 8.47143 12.4632ZM9.85167 7.76664C9.77414 7.76717 9.69821 7.74457 9.63359 7.70172C9.56897 7.65887 9.5186 7.59772 9.48892 7.52609C9.45924 7.45446 9.4516 7.37561 9.46698 7.29961C9.48235 7.22361 9.52004 7.15393 9.57523 7.09947C10.1711 6.50361 9.92103 5.23375 9.29977 4.61249C9.26055 4.57695 9.22895 4.53381 9.20691 4.48569C9.18486 4.43757 9.17282 4.38547 9.17152 4.33256C9.17021 4.27965 9.17968 4.22702 9.19933 4.17787C9.21898 4.12873 9.24841 4.08408 9.28584 4.04666C9.32327 4.00923 9.36791 3.9798 9.41706 3.96014C9.4662 3.94049 9.51883 3.93103 9.57174 3.93233C9.62466 3.93364 9.67675 3.94568 9.72487 3.96772C9.77299 3.98977 9.81613 4.02136 9.85167 4.06059C10.7464 4.95535 11.061 6.71851 10.1281 7.65235C10.0918 7.68862 10.0487 7.71739 10.0013 7.737C9.95383 7.75661 9.903 7.76668 9.85167 7.76664ZM18.4008 12.5023C17.2613 12.501 16.1688 12.0477 15.3631 11.242C14.5573 10.4362 14.1041 9.34376 14.1028 8.20425C14.1028 5.83449 16.031 3.90625 18.4008 3.90625C20.7706 3.90625 22.6988 5.83449 22.6988 8.20425C22.6988 10.574 20.7706 12.5023 18.4008 12.5023ZM18.4008 4.68771C17.4685 4.68874 16.5746 5.05956 15.9154 5.71882C15.2561 6.37808 14.8853 7.27193 14.8842 8.20425C14.8842 10.1432 16.4618 11.7208 18.4008 11.7208C20.3398 11.7208 21.9173 10.1432 21.9173 8.20425C21.9173 6.26527 20.3398 4.68771 18.4008 4.68771Z" fill="#49DCFF"/>
<path d="M18.4008 9.76645C17.5392 9.76645 16.8379 9.06509 16.8379 8.20354C16.8379 7.89442 16.9296 7.59225 17.1013 7.33523C17.273 7.07821 17.5171 6.87789 17.8027 6.7596C18.0883 6.6413 18.4025 6.61035 18.7057 6.67066C19.0089 6.73096 19.2874 6.87981 19.5059 7.09839C19.7245 7.31697 19.8734 7.59545 19.9337 7.89863C19.994 8.2018 19.963 8.51605 19.8447 8.80164C19.7264 9.08722 19.5261 9.33131 19.2691 9.50305C19.0121 9.67478 18.7099 9.76645 18.4008 9.76645ZM18.4008 7.42208C18.1934 7.42234 17.9946 7.50497 17.8482 7.6518C17.7017 7.79862 17.6196 7.99762 17.6198 8.205C17.6201 8.41239 17.7027 8.61117 17.8496 8.75763C17.9964 8.90409 18.1954 8.98623 18.4028 8.98597C18.6101 8.98571 18.8089 8.90308 18.9554 8.75625C19.1018 8.60943 19.184 8.41043 19.1837 8.20305C19.1835 7.99566 19.1008 7.79688 18.954 7.65042C18.8072 7.50396 18.6082 7.42182 18.4008 7.42208Z" fill="#49DCFF"/>
<path d="M18.4013 7.42259C18.2977 7.42259 18.1983 7.38143 18.125 7.30815C18.0518 7.23488 18.0106 7.13549 18.0106 7.03187C18.0106 6.18985 16.9361 5.46896 16.0569 5.46896C15.9533 5.46896 15.8539 5.42779 15.7807 5.35451C15.7074 5.28124 15.6662 5.18185 15.6662 5.07823C15.6662 4.9746 15.7074 4.87522 15.7807 4.80194C15.8539 4.72867 15.9533 4.6875 16.0569 4.6875C17.3219 4.6875 18.792 5.71121 18.792 7.03187C18.792 7.13549 18.7509 7.23488 18.6776 7.30815C18.6043 7.38143 18.5049 7.42259 18.4013 7.42259ZM20.7457 11.7206C19.4807 11.7206 18.0106 10.6959 18.0106 9.37623C18.0106 9.2726 18.0518 9.17322 18.125 9.09995C18.1983 9.02667 18.2977 8.9855 18.4013 8.9855C18.5049 8.9855 18.6043 9.02667 18.6776 9.09995C18.7509 9.17322 18.792 9.2726 18.792 9.37623C18.792 10.2173 19.8665 10.9391 20.7457 10.9391C20.8493 10.9391 20.9487 10.9803 21.022 11.0536C21.0952 11.1269 21.1364 11.2262 21.1364 11.3299C21.1364 11.4335 21.0952 11.5329 21.022 11.6062C20.9487 11.6794 20.8493 11.7206 20.7457 11.7206ZM15.2755 10.9391C15.1719 10.9391 15.0725 10.898 14.9992 10.8247C14.9259 10.7514 14.8848 10.652 14.8848 10.5484C14.8848 9.28343 15.9094 7.81332 17.2291 7.81332C17.3328 7.81332 17.4321 7.85449 17.5054 7.92776C17.5787 8.00104 17.6199 8.10042 17.6199 8.20405C17.6199 8.30768 17.5787 8.40706 17.5054 8.48034C17.4321 8.55361 17.3328 8.59478 17.2291 8.59478C16.3871 8.59478 15.6662 9.66928 15.6662 10.5484C15.6662 10.652 15.6251 10.7514 15.5518 10.8247C15.4785 10.898 15.3791 10.9391 15.2755 10.9391ZM19.5735 8.59478C19.4699 8.59478 19.3705 8.55361 19.2972 8.48034C19.2239 8.40706 19.1828 8.30768 19.1828 8.20405C19.1828 8.10042 19.2239 8.00104 19.2972 7.92776C19.3705 7.85449 19.4699 7.81332 19.5735 7.81332C20.4155 7.81332 21.1364 6.73882 21.1364 5.85968C21.1364 5.75606 21.1776 5.65667 21.2509 5.5834C21.3241 5.51012 21.4235 5.46896 21.5271 5.46896C21.6308 5.46896 21.7301 5.51012 21.8034 5.5834C21.8767 5.65667 21.9179 5.75606 21.9179 5.85968C21.9179 7.12466 20.8932 8.59478 19.5735 8.59478Z" fill="#49DCFF"/>
<path d="M14.5326 8.04055C14.4554 8.04042 14.3799 8.0174 14.3158 7.97439C14.2516 7.93139 14.2016 7.87033 14.1722 7.79894C14.1427 7.72755 14.135 7.64902 14.1502 7.57327C14.1653 7.49753 14.2025 7.42797 14.2572 7.37338C14.6919 6.9387 15.3454 6.631 16.0057 6.5509C16.751 6.45908 17.4064 6.65445 17.848 7.09694C17.9182 7.17075 17.9568 7.26909 17.9556 7.37098C17.9544 7.47286 17.9135 7.57025 17.8415 7.64236C17.7695 7.71448 17.6722 7.75562 17.5703 7.75701C17.4684 7.75841 17.37 7.71994 17.2961 7.64982C17.0313 7.38413 16.5947 7.26691 16.1004 7.3265C15.6071 7.38511 15.1256 7.60977 14.8101 7.92529C14.7365 7.99887 14.6367 8.04031 14.5326 8.04055ZM20.4443 9.87502C19.8456 9.87502 19.3249 9.67965 18.9537 9.30651C18.8864 9.23218 18.8502 9.13481 18.8527 9.03454C18.8551 8.93427 18.8961 8.83879 18.967 8.76787C19.0379 8.69695 19.1334 8.65601 19.2337 8.65355C19.3339 8.65108 19.4313 8.68726 19.5056 8.75461C19.7713 9.01932 20.207 9.13752 20.7022 9.07696C21.1945 9.01835 21.6771 8.79368 21.9916 8.47817C22.0279 8.44186 22.071 8.41307 22.1185 8.39342C22.1659 8.37377 22.2167 8.36366 22.2681 8.36366C22.3194 8.36366 22.3702 8.37377 22.4177 8.39342C22.4651 8.41307 22.5082 8.44186 22.5445 8.47817C22.5808 8.51447 22.6096 8.55757 22.6293 8.605C22.6489 8.65243 22.659 8.70327 22.659 8.75461C22.659 8.80595 22.6489 8.85678 22.6293 8.90421C22.6096 8.95165 22.5808 8.99474 22.5445 9.03105C22.1098 9.46573 21.4554 9.77343 20.796 9.85255C20.6794 9.86738 20.5619 9.87488 20.4443 9.87502ZM17.848 12.4607C17.7967 12.4605 17.746 12.4502 17.6988 12.4305C17.6515 12.4107 17.6086 12.3818 17.5725 12.3454C16.6777 11.4516 16.3622 9.68747 17.2961 8.75363C17.3694 8.68031 17.4688 8.63912 17.5725 8.63912C17.6762 8.63912 17.7756 8.68031 17.8489 8.75363C17.9223 8.82695 17.9634 8.92638 17.9634 9.03007C17.9634 9.13375 17.9223 9.23319 17.8489 9.30651C17.2531 9.90237 17.5031 11.1713 18.1244 11.7925C18.1794 11.847 18.2169 11.9167 18.2322 11.9926C18.2476 12.0685 18.24 12.1473 18.2105 12.2189C18.181 12.2905 18.1308 12.3517 18.0665 12.3947C18.0021 12.4378 17.9254 12.4607 17.848 12.4607ZM19.2292 7.76411C19.1517 7.76445 19.0759 7.74171 19.0115 7.69878C18.947 7.65586 18.8968 7.5947 18.8672 7.52311C18.8377 7.45152 18.8301 7.37275 18.8455 7.29684C18.8609 7.22094 18.8986 7.15135 18.9537 7.09694C19.5486 6.50108 19.2995 5.23122 18.6773 4.60996C18.6381 4.57442 18.6065 4.53128 18.5844 4.48316C18.5624 4.43504 18.5503 4.38295 18.549 4.33003C18.5477 4.27712 18.5572 4.22449 18.5768 4.17534C18.5965 4.1262 18.6259 4.08156 18.6633 4.04413C18.7008 4.0067 18.7454 3.97727 18.7946 3.95762C18.8437 3.93796 18.8963 3.9285 18.9493 3.92981C19.0022 3.93111 19.0543 3.94315 19.1024 3.9652C19.1505 3.98724 19.1936 4.01884 19.2292 4.05806C20.1239 4.95283 20.4395 6.71598 19.5056 7.64982C19.4693 7.6861 19.4262 7.71486 19.3788 7.73447C19.3313 7.75408 19.2805 7.76415 19.2292 7.76411Z" fill="#49DCFF"/>
</svg>
