<svg width="24" height="25" viewBox="0 0 24 25" fill="none" xmlns="http://www.w3.org/2000/svg">
    <g clip-path="url(#clip0_3_11810)">
        <path d="M21.3754 22.8709C21.2821 22.8709 21.1925 22.908 21.1265 22.974C21.0605 23.04 21.0234 23.1296 21.0234 23.2229V24.0079H2.97744V3.70494C2.97744 3.61158 2.94035 3.52205 2.87434 3.45604C2.80833 3.39002 2.71879 3.35294 2.62544 3.35294C2.53208 3.35294 2.44255 3.39002 2.37654 3.45604C2.31052 3.52205 2.27344 3.61158 2.27344 3.70494V24.3589C2.27344 24.5539 2.43144 24.7109 2.62544 24.7109H21.3754C21.4688 24.7109 21.5583 24.6739 21.6243 24.6078C21.6904 24.5418 21.7274 24.4523 21.7274 24.3589V23.2229C21.7274 23.1296 21.6904 23.04 21.6243 22.974C21.5583 22.908 21.4688 22.8709 21.3754 22.8709ZM21.3754 0.710938H2.62544C2.53208 0.710938 2.44255 0.748023 2.37654 0.814036C2.31052 0.880049 2.27344 0.969581 2.27344 1.06294V2.19294C2.27344 2.28629 2.31052 2.37583 2.37654 2.44184C2.44255 2.50785 2.53208 2.54494 2.62544 2.54494C2.71879 2.54494 2.80833 2.50785 2.87434 2.44184C2.94035 2.37583 2.97744 2.28629 2.97744 2.19294V1.41394H21.0234V21.7049C21.0234 21.7983 21.0605 21.8878 21.1265 21.9538C21.1925 22.0199 21.2821 22.0569 21.3754 22.0569C21.4688 22.0569 21.5583 22.0199 21.6243 21.9538C21.6904 21.8878 21.7274 21.7983 21.7274 21.7049V1.06294C21.7274 0.969581 21.6904 0.880049 21.6243 0.814036C21.5583 0.748023 21.4688 0.710938 21.3754 0.710938Z"
              fill="#49DCFF"/>
        <path d="M20.3207 18.0847C20.3207 17.941 20.2778 17.8005 20.1977 17.6812C20.1176 17.5618 20.0037 17.4691 19.8707 17.4147C19.738 17.3596 19.592 17.3452 19.4511 17.3733C19.3103 17.4015 19.181 17.4709 19.0797 17.5727L18.2657 18.3887L17.9117 17.8377L20.2017 15.5477C20.2345 15.5151 20.2606 15.4763 20.2785 15.4335C20.2963 15.3908 20.3056 15.345 20.3057 15.2987L20.3187 2.48469C20.3207 2.46969 20.3187 2.48469 20.3187 2.46969V2.45969L20.3177 2.43469L20.3137 2.41069C20.3137 2.40669 20.3137 2.40369 20.3117 2.40069C20.3098 2.39091 20.3075 2.38124 20.3047 2.37169V2.36769C20.3015 2.35786 20.2978 2.34818 20.2937 2.33869L20.2917 2.33469C20.2881 2.32586 20.2841 2.31718 20.2797 2.30869L20.2777 2.30369C20.2734 2.29582 20.2687 2.28814 20.2637 2.28069L20.2597 2.27469C20.255 2.2675 20.25 2.2605 20.2447 2.25369L20.2397 2.24669C20.2327 2.23835 20.2254 2.23034 20.2177 2.22269L20.2157 2.22169C20.2078 2.21327 20.1994 2.20526 20.1907 2.19769L20.1847 2.19369C20.1776 2.18805 20.1702 2.18271 20.1627 2.17769L20.1577 2.17469C20.1499 2.16938 20.1419 2.16438 20.1337 2.15969L20.1297 2.15769C20.1209 2.15297 20.1119 2.14863 20.1027 2.14469H20.0987C20.0889 2.14056 20.0788 2.13689 20.0687 2.13369H20.0657C20.0558 2.13026 20.0458 2.12726 20.0357 2.12469H20.0277L20.0017 2.11969C19.9901 2.11832 19.9784 2.11766 19.9667 2.11769H16.5087C16.4187 2.12249 16.334 2.16162 16.272 2.22701C16.21 2.2924 16.1754 2.37908 16.1754 2.46919C16.1754 2.5593 16.21 2.64597 16.272 2.71137C16.334 2.77676 16.4187 2.81589 16.5087 2.82069H16.6867V2.91469C16.6875 3.60454 16.9619 4.2659 17.4497 4.7537C17.9375 5.2415 18.5988 5.51589 19.2887 5.51669H19.6117L19.6017 15.1527L17.5217 17.2317L16.9617 16.3557C17.6522 15.6887 18.2015 14.8895 18.5767 14.0057C18.9519 13.122 19.1454 12.1718 19.1457 11.2117C19.1457 7.26969 15.9397 4.06369 11.9977 4.06369C8.05569 4.06369 4.84969 7.26969 4.84969 11.2117C4.84969 15.1537 8.05569 18.3597 11.9977 18.3597C13.098 18.3595 14.1835 18.1056 15.1697 17.6177L15.7837 18.9697L14.5157 20.2387C14.4498 20.3044 14.4128 20.3936 14.4127 20.4867V22.6027H8.95869L4.38169 18.0257V5.51569H4.70769C5.39727 5.51516 6.05849 5.24112 6.54629 4.7537C7.03409 4.26628 7.30863 3.60527 7.30969 2.91569V2.82069H15.0097C15.0574 2.82323 15.1052 2.81603 15.15 2.79952C15.1949 2.783 15.2359 2.75752 15.2706 2.72463C15.3053 2.69174 15.3329 2.65213 15.3518 2.60821C15.3707 2.5643 15.3804 2.51699 15.3804 2.46919C15.3804 2.42138 15.3707 2.37408 15.3518 2.33016C15.3329 2.28624 15.3053 2.24663 15.2706 2.21374C15.2359 2.18085 15.1949 2.15537 15.15 2.13886C15.1052 2.12234 15.0574 2.11514 15.0097 2.11769H4.03069C3.9375 2.11795 3.84823 2.15515 3.78243 2.22114C3.71664 2.28712 3.67969 2.3765 3.67969 2.46969V18.1707C3.67969 18.2637 3.71669 18.3537 3.78269 18.4197L8.56569 23.2027C8.6315 23.2684 8.72066 23.3055 8.81369 23.3057H14.7667C14.8129 23.3057 14.8587 23.2966 14.9014 23.2789C14.9441 23.2612 14.9829 23.2353 15.0156 23.2026C15.0483 23.1699 15.0742 23.1311 15.0919 23.0884C15.1096 23.0457 15.1187 22.9999 15.1187 22.9537V20.6327L16.0967 19.6537L16.3807 20.2807L15.9987 20.6637C15.9222 20.7404 15.8616 20.8315 15.8204 20.9317C15.7792 21.0319 15.7582 21.1393 15.7587 21.2477L15.7647 22.4857C15.7667 22.9357 16.1347 23.3017 16.5847 23.3017H19.4147C19.5349 23.3021 19.654 23.2786 19.7651 23.2326C19.8761 23.1866 19.977 23.119 20.0617 23.0337C20.1469 22.9488 20.2144 22.8477 20.2602 22.7365C20.3061 22.6252 20.3293 22.506 20.3287 22.3857L20.3217 18.0857L20.3207 18.0847ZM19.2887 4.81369C18.7851 4.81342 18.3023 4.61326 17.9462 4.25719C17.5901 3.90112 17.39 3.41825 17.3897 2.91469V2.82169H19.6147L19.6127 4.81469L19.2887 4.81369ZM4.38169 2.82069H6.60669V2.91469C6.60642 3.41825 6.40626 3.90112 6.05019 4.25719C5.69412 4.61326 5.21125 4.81342 4.70769 4.81369H4.38169V2.82069ZM14.3617 14.7057L14.5547 16.0557C14.5827 16.2547 14.6397 16.4487 14.7237 16.6327L14.8797 16.9777C13.9851 17.4246 12.9988 17.6574 11.9987 17.6577C10.2898 17.6556 8.65161 16.9757 7.44337 15.7673C6.23513 14.5589 5.55554 12.9205 5.55369 11.2117C5.5558 9.50302 6.23551 7.86494 7.44372 6.65672C8.65194 5.44851 10.29 4.7688 11.9987 4.76669C13.7074 4.7688 15.3454 5.44851 16.5537 6.65672C17.7619 7.86494 18.4416 9.50302 18.4437 11.2117C18.4428 12.912 17.7708 14.5432 16.5737 15.7507L16.5137 15.6577C16.4052 15.4882 16.2732 15.3351 16.1217 15.2027L15.0937 14.3067C15.0255 14.2466 14.9403 14.209 14.8499 14.1992C14.7595 14.1893 14.6683 14.2077 14.5887 14.2517C14.5086 14.2947 14.4437 14.3614 14.4029 14.4427C14.3621 14.5239 14.3484 14.6158 14.3617 14.7057ZM15.3637 16.3417C15.3078 16.2187 15.2698 16.0884 15.2507 15.9547L15.1557 15.2927L15.6597 15.7327C15.7617 15.8207 15.8497 15.9227 15.9227 16.0377L18.6147 20.2377L18.6737 20.3307C18.758 20.4895 18.776 20.6752 18.7237 20.8473C18.6714 21.0193 18.5531 21.1636 18.3947 21.2487C18.2368 21.3342 18.0517 21.3543 17.8792 21.3045C17.7067 21.2547 17.5607 21.1392 17.4727 20.9827L17.4287 20.8867L17.1267 20.2237L17.1257 20.2207L15.3637 16.3407V16.3417ZM19.5637 22.5367C19.5441 22.5565 19.5207 22.5721 19.4949 22.5828C19.4692 22.5934 19.4416 22.5988 19.4137 22.5987H16.5837C16.5527 22.5984 16.5231 22.586 16.5012 22.5641C16.4794 22.5422 16.4669 22.5126 16.4667 22.4817L16.4607 21.2427C16.4607 21.2127 16.4727 21.1827 16.4947 21.1607L16.6907 20.9647L16.7897 21.1807L16.8407 21.2907C16.9573 21.516 17.1339 21.7046 17.3509 21.8359C17.5679 21.9672 17.817 22.036 18.0707 22.0347C18.2987 22.0347 18.5247 21.9787 18.7307 21.8657C19.0567 21.6887 19.2937 21.3957 19.3987 21.0407C19.4516 20.8628 19.4679 20.676 19.4468 20.4916C19.4256 20.3072 19.3674 20.129 19.2757 19.9677L19.2087 19.8607L18.6537 18.9947L19.5777 18.0697C19.5827 18.0637 19.5877 18.0587 19.6027 18.0647C19.6177 18.0707 19.6177 18.0777 19.6177 18.0857L19.6247 22.3877C19.6247 22.4154 19.6192 22.4428 19.6086 22.4684C19.5979 22.494 19.5823 22.5172 19.5627 22.5367H19.5637Z"
              fill="#49DCFF"/>
        <path d="M11.9999 8.04688C11.1611 8.04793 10.357 8.38162 9.76382 8.97476C9.17068 9.56789 8.837 10.3721 8.83594 11.2109C8.837 12.0497 9.17068 12.8539 9.76382 13.447C10.357 14.0401 11.1611 14.3738 11.9999 14.3749C12.8388 14.3738 13.6429 14.0401 14.2361 13.447C14.8292 12.8539 15.1629 12.0497 15.1639 11.2109C15.1629 10.3721 14.8292 9.56789 14.2361 8.97476C13.6429 8.38162 12.8388 8.04793 11.9999 8.04688ZM11.9999 13.6719C11.3477 13.6708 10.7224 13.4112 10.2613 12.9498C9.80013 12.4885 9.54073 11.8632 9.53994 11.2109C9.54099 10.5588 9.80051 9.93367 10.2616 9.47256C10.7227 9.01145 11.3478 8.75193 11.9999 8.75087C12.652 8.75193 13.2771 9.01145 13.7383 9.47256C14.1994 9.93367 14.4589 10.5588 14.4599 11.2109C14.4589 11.863 14.1994 12.4881 13.7383 12.9492C13.2771 13.4103 12.652 13.6698 11.9999 13.6709V13.6719Z"
              fill="#49DCFF"/>
        <path d="M11.9944 9.92188C11.2844 9.92188 10.7044 10.5019 10.7044 11.2119C10.7044 11.9219 11.2844 12.5019 11.9944 12.5019C12.3275 12.4888 12.6426 12.3472 12.8736 12.1069C13.1046 11.8666 13.2336 11.5462 13.2336 11.2129C13.2336 10.8795 13.1046 10.5591 12.8736 10.3188C12.6426 10.0785 12.3275 9.937 11.9944 9.92387V9.92188ZM11.9944 11.7979C11.9154 11.8011 11.8365 11.7883 11.7625 11.7602C11.6885 11.7321 11.621 11.6894 11.5639 11.6346C11.5069 11.5797 11.4615 11.5139 11.4305 11.4411C11.3996 11.3683 11.3836 11.29 11.3837 11.2109C11.3838 11.1317 11.3998 11.0534 11.4309 10.9807C11.462 10.9079 11.5075 10.8422 11.5647 10.7875C11.6218 10.7327 11.6894 10.6901 11.7634 10.6622C11.8375 10.6342 11.9164 10.6215 11.9954 10.6249C12.1468 10.6313 12.2898 10.6959 12.3946 10.8053C12.4994 10.9147 12.5578 11.0604 12.5577 11.2119C12.5576 11.3633 12.4989 11.5089 12.3939 11.6181C12.2889 11.7274 12.1458 11.7918 11.9944 11.7979ZM4.86943 21.1259C4.59757 21.1377 4.34078 21.254 4.1526 21.4506C3.96442 21.6472 3.85937 21.9088 3.85938 22.1809C3.85938 22.453 3.96442 22.7146 4.1526 22.9112C4.34078 23.1077 4.59757 23.224 4.86943 23.2359C5.14129 23.224 5.39808 23.1077 5.58626 22.9112C5.77444 22.7146 5.87948 22.453 5.87948 22.1809C5.87948 21.9088 5.77444 21.6472 5.58626 21.4506C5.39808 21.254 5.14129 21.1377 4.86943 21.1259ZM4.86943 22.5319C4.77607 22.5319 4.68654 22.4948 4.62053 22.4288C4.55452 22.3628 4.51743 22.2732 4.51743 22.1799C4.51743 22.0865 4.55452 21.997 4.62053 21.931C4.68654 21.865 4.77607 21.8279 4.86943 21.8279C4.96279 21.8279 5.05232 21.865 5.11833 21.931C5.18434 21.997 5.22143 22.0865 5.22143 22.1799C5.22143 22.2732 5.18434 22.3628 5.11833 22.4288C5.05232 22.4948 4.96279 22.5319 4.86943 22.5319ZM18.0994 21.0119C18.1928 21.0119 18.2823 20.9748 18.3483 20.9088C18.4143 20.8428 18.4514 20.7532 18.4514 20.6599C18.4514 20.5665 18.4143 20.477 18.3483 20.411C18.2823 20.345 18.1928 20.3079 18.0994 20.3079C18.0094 20.3127 17.9247 20.3518 17.8627 20.4172C17.8007 20.4826 17.7662 20.5693 17.7662 20.6594C17.7662 20.7495 17.8007 20.8362 17.8627 20.9016C17.9247 20.9669 18.0094 21.0071 18.0994 21.0119Z"
              fill="#49DCFF"/>
    </g>
    <defs>
        <clipPath id="clip0_3_11810">
            <rect width="24" height="24" fill="white" transform="translate(0 0.710938)"/>
        </clipPath>
    </defs>
</svg>
