<svg width="24" height="25" viewBox="0 0 24 25" fill="none" xmlns="http://www.w3.org/2000/svg">
    <g clip-path="url(#clip0_3_11819)">
        <g clip-path="url(#clip1_3_11819)">
            <path d="M7.19869 24.3809H10.3989C10.505 24.3809 10.6066 24.3387 10.6816 24.2638C10.7566 24.1888 10.7987 24.0871 10.7987 23.9811C10.7987 23.6628 10.9251 23.3576 11.1502 23.1326C11.3752 22.9075 11.6804 22.7811 11.9987 22.7811C12.3169 22.7811 12.6222 22.9075 12.8472 23.1326C13.0723 23.3576 13.1987 23.6628 13.1987 23.9811C13.1987 24.2016 13.3779 24.3809 13.5984 24.3809H16.7987C17.2412 24.3809 17.5989 24.0224 17.5989 23.5806V21.1806C17.5989 20.7389 17.2404 20.3811 16.7987 20.3811V19.5809C17.2412 19.5809 17.5989 19.2224 17.5989 18.7806V13.9806C17.5989 13.5389 17.2404 13.1811 16.7987 13.1811V12.3809C17.2412 12.3809 17.5989 12.0224 17.5989 11.5806V6.78061C17.5989 6.33886 17.2404 5.98111 16.7987 5.98111V5.18086C17.2412 5.18086 17.5989 4.82236 17.5989 4.38061V3.58111C17.5989 3.13861 17.2404 2.78086 16.7987 2.78086V1.18111C16.7987 0.738609 16.4409 0.380859 15.9984 0.380859H7.99894C7.55644 0.380859 7.19869 0.739359 7.19869 1.18111V2.78086C6.75694 2.78086 6.39844 3.13936 6.39844 3.58111V4.38061C6.39844 4.82311 6.75694 5.18086 7.19869 5.18086V5.98111C6.75694 5.98111 6.39844 6.33886 6.39844 6.78061V11.5806C6.39844 12.0231 6.75694 12.3809 7.19869 12.3809V13.1811C6.75694 13.1811 6.39844 13.5389 6.39844 13.9806V18.7806C6.39844 19.2231 6.75694 19.5809 7.19869 19.5809V20.3811C6.75694 20.3811 6.39844 20.7389 6.39844 21.1806V23.5806C6.39844 24.0231 6.75694 24.3809 7.19869 24.3809ZM7.99894 1.18111H9.19894V1.58086C9.19894 1.68688 9.24105 1.78856 9.31602 1.86353C9.39099 1.93849 9.49267 1.98061 9.59869 1.98061C9.70471 1.98061 9.80639 1.93849 9.88135 1.86353C9.95632 1.78856 9.99844 1.68688 9.99844 1.58086V1.18111H10.7987V1.58086C10.7987 1.68698 10.8408 1.78875 10.9159 1.86379C10.9909 1.93883 11.0927 1.98098 11.1988 1.98098C11.3049 1.98098 11.4067 1.93883 11.4817 1.86379C11.5568 1.78875 11.5989 1.68698 11.5989 1.58086V1.18111H12.3984V1.58086C12.3984 1.68698 12.4406 1.78875 12.5156 1.86379C12.5907 1.93883 12.6924 1.98098 12.7986 1.98098C12.9047 1.98098 13.0065 1.93883 13.0815 1.86379C13.1565 1.78875 13.1987 1.68698 13.1987 1.58086V1.18111H13.9989V1.58086C13.9989 1.68688 14.0411 1.78856 14.116 1.86353C14.191 1.93849 14.2927 1.98061 14.3987 1.98061C14.5047 1.98061 14.6064 1.93849 14.6814 1.86353C14.7563 1.78856 14.7984 1.68688 14.7984 1.58086V1.18111H15.9984V2.78086H7.99894V1.18111ZM7.19869 21.1806C7.64119 21.1806 7.99894 20.8229 7.99894 20.3811V19.5809C7.99894 19.1384 7.64044 18.7806 7.19869 18.7806V13.9806C7.64119 13.9806 7.99894 13.6229 7.99894 13.1811V12.3809C7.99894 11.9384 7.64044 11.5806 7.19869 11.5806V6.78061C7.64119 6.78061 7.99894 6.42286 7.99894 5.98111V5.18086C7.99894 4.73836 7.64044 4.38061 7.19869 4.38061V3.58111H16.7987V4.38061C16.3569 4.38061 15.9984 4.73911 15.9984 5.18086V5.98111C15.9984 6.42286 16.3569 6.78061 16.7987 6.78061V11.5806C16.3569 11.5806 15.9984 11.9391 15.9984 12.3809V13.1811C15.9984 13.6229 16.3569 13.9806 16.7987 13.9806V18.7806C16.3569 18.7806 15.9984 19.1391 15.9984 19.5809V20.3811C15.9984 20.8229 16.3569 21.1806 16.7987 21.1806V23.5806H13.9584C13.8661 23.129 13.6207 22.7231 13.2636 22.4316C12.9065 22.1401 12.4597 21.9808 11.9987 21.9808C11.5377 21.9808 11.0909 22.1401 10.7338 22.4316C10.3767 22.7231 10.1312 23.129 10.0389 23.5806H7.19869V21.1806Z" fill="#49DCFF"/>
            <path d="M9.59713 10.3809H14.3971C14.8396 10.3809 15.1974 10.0224 15.1974 9.58061V5.18111C15.1974 4.73861 14.8389 4.38086 14.3971 4.38086H9.59713C9.15538 4.38086 8.79688 4.73936 8.79688 5.18111V9.58061C8.79688 10.0231 9.15538 10.3809 9.59713 10.3809ZM9.59713 5.18111H14.3971V9.58061H9.59713V5.18111ZM9.59713 15.9804H10.7971C11.2396 15.9804 11.5974 15.6226 11.5974 15.1809V11.9806C11.5974 11.5389 11.2389 11.1804 10.7971 11.1804H9.59713C9.15538 11.1804 8.79688 11.5389 8.79688 11.9806V15.1809C8.79688 15.6226 9.15538 15.9804 9.59713 15.9804ZM9.59713 11.9806H10.7971V15.1809H9.59713V11.9806ZM14.3971 11.1804H13.1971C12.7554 11.1804 12.3969 11.5389 12.3969 11.9806V15.1809C12.3969 15.6226 12.7554 15.9804 13.1971 15.9804H14.3971C14.8396 15.9804 15.1974 15.6226 15.1974 15.1809V11.9806C15.1974 11.5389 14.8389 11.1804 14.3971 11.1804ZM13.1971 15.1809V11.9806H14.3971V15.1809H13.1971ZM15.1974 20.3806V17.5809C15.1974 17.1384 14.8389 16.7806 14.3971 16.7806H9.59713C9.15538 16.7806 8.79688 17.1391 8.79688 17.5809V20.3806C8.79688 20.8231 9.15538 21.1809 9.59713 21.1809H14.3971C14.8396 21.1809 15.1974 20.8224 15.1974 20.3806ZM9.59713 17.5809H14.3971V20.3806H9.59713V17.5809Z" fill="#49DCFF"/>
            <path d="M10.7986 6.78192C10.8511 6.78192 10.903 6.77158 10.9515 6.75149C11 6.7314 11.0441 6.70196 11.0812 6.66484C11.1183 6.62772 11.1478 6.58365 11.1679 6.53515C11.188 6.48665 11.1983 6.43467 11.1983 6.38217C11.1983 6.32968 11.188 6.27769 11.1679 6.22919C11.1478 6.18069 11.1183 6.13663 11.0812 6.09951C11.0441 6.06239 11 6.03294 10.9515 6.01285C10.903 5.99276 10.8511 5.98242 10.7986 5.98242C10.6925 5.98242 10.5909 6.02454 10.5159 6.09951C10.4409 6.17447 10.3988 6.27615 10.3988 6.38217C10.3988 6.48819 10.4409 6.58987 10.5159 6.66484C10.5909 6.73981 10.6925 6.78192 10.7986 6.78192ZM13.1986 6.78192C13.2511 6.78192 13.303 6.77158 13.3515 6.75149C13.4 6.7314 13.4441 6.70196 13.4812 6.66484C13.5183 6.62772 13.5478 6.58365 13.5679 6.53515C13.588 6.48665 13.5983 6.43467 13.5983 6.38217C13.5983 6.32968 13.588 6.27769 13.5679 6.22919C13.5478 6.18069 13.5183 6.13663 13.4812 6.09951C13.4441 6.06239 13.4 6.03294 13.3515 6.01285C13.303 5.99276 13.2511 5.98242 13.1986 5.98242C13.0925 5.98242 12.9909 6.02454 12.9159 6.09951C12.8409 6.17447 12.7988 6.27615 12.7988 6.38217C12.7988 6.48819 12.8409 6.58987 12.9159 6.66484C12.9909 6.73981 13.0925 6.78192 13.1986 6.78192ZM10.7986 8.78217C10.9047 8.78217 11.0065 8.74002 11.0815 8.66498C11.1565 8.58994 11.1987 8.48817 11.1987 8.38205C11.1987 8.27593 11.1565 8.17415 11.0815 8.09912C11.0065 8.02408 10.9047 7.98192 10.7986 7.98192C10.6924 7.98192 10.5907 8.02408 10.5156 8.09912C10.4406 8.17415 10.3984 8.27593 10.3984 8.38205C10.3984 8.48817 10.4406 8.58994 10.5156 8.66498C10.5907 8.74002 10.6924 8.78217 10.7986 8.78217ZM13.1986 8.78217C13.3047 8.78217 13.4065 8.74002 13.4815 8.66498C13.5565 8.58994 13.5987 8.48817 13.5987 8.38205C13.5987 8.27593 13.5565 8.17415 13.4815 8.09912C13.4065 8.02408 13.3047 7.98192 13.1986 7.98192C13.0924 7.98192 12.9907 8.02408 12.9156 8.09912C12.8406 8.17415 12.7984 8.27593 12.7984 8.38205C12.7984 8.48817 12.8406 8.58994 12.9156 8.66498C12.9907 8.74002 13.0924 8.78217 13.1986 8.78217Z" fill="#49DCFF"/>
        </g>
    </g>
    <defs>
        <clipPath id="clip0_3_11819">
            <rect width="24" height="24" fill="white" transform="translate(0 0.380859)"/>
        </clipPath>
        <clipPath id="clip1_3_11819">
            <rect width="24" height="24" fill="white" transform="translate(0 0.380859)"/>
        </clipPath>
    </defs>
</svg>
