<svg width="24" height="18" viewBox="0 0 24 18" fill="none" xmlns="http://www.w3.org/2000/svg">
    <g clip-path="url(#clip0_3_11923)">
        <path d="M17.997 3.90871L10.841 1.73071C10.5845 1.65257 10.3132 1.63565 10.049 1.68128C9.78472 1.72692 9.53485 1.83385 9.31939 1.9935C9.10393 2.15315 8.92889 2.36107 8.8083 2.60059C8.68771 2.8401 8.62493 3.10455 8.62501 3.37271V6.62471L7.23501 8.01471C7.16466 8.08497 7.12509 8.18029 7.12501 8.27971V9.99971L4.93901 12.1857C4.79937 12.3246 4.68867 12.4898 4.61331 12.6717C4.53796 12.8537 4.49945 13.0488 4.50001 13.2457V18.5927C4.50055 18.8255 4.555 19.055 4.6591 19.2632C4.7632 19.4714 4.91411 19.6526 5.10001 19.7927L9.00101 22.7177C10.1385 23.567 11.5194 24.0271 12.939 24.0297C14.6787 24.0276 16.3465 23.3356 17.5767 22.1054C18.8069 20.8752 19.4989 19.2074 19.501 17.4677V5.93771C19.501 5.48283 19.3548 5.03999 19.084 4.67449C18.8132 4.30899 18.4322 4.04019 17.997 3.90771V3.90871ZM18.681 5.50471C18.727 5.64471 18.751 5.79071 18.751 5.93871V10.2987L15.751 8.79871V6.02971C15.751 5.93025 15.7115 5.83487 15.6412 5.76454C15.5708 5.69422 15.4755 5.65471 15.376 5.65471H14.626V3.66671L17.778 4.62671C17.9876 4.69046 18.1789 4.80342 18.336 4.95615C18.4931 5.10888 18.6114 5.29697 18.681 5.50471ZM15.001 6.40471V8.65471H13.501V6.40471H15.001ZM9.80601 2.56871C9.92486 2.48916 10.06 2.43711 10.2015 2.41635C10.343 2.3956 10.4873 2.40665 10.624 2.44871L13.876 3.43871V5.65471H13.126C13.0266 5.65471 12.9312 5.69422 12.8608 5.76454C12.7905 5.83487 12.751 5.93025 12.751 6.02971V8.78871L9.37601 10.3227V3.37271C9.37577 3.21362 9.41492 3.05695 9.48994 2.91666C9.56497 2.77637 9.67356 2.65684 9.80601 2.56871ZM8.62601 13.9047H7.50101V12.7797H8.62601V13.9047ZM7.50101 14.6547H8.62601V15.7797H7.50101V14.6547ZM9.45101 22.1177L5.55101 19.1927C5.45803 19.1227 5.38255 19.0321 5.3305 18.928C5.27845 18.8239 5.25124 18.7091 5.25101 18.5927V18.0037L10.646 21.8117C10.962 22.0357 11.34 22.1557 11.727 22.1547H16.371C15.3763 22.8869 14.1731 23.2811 12.938 23.2797C11.681 23.2771 10.4583 22.8697 9.45101 22.1177ZM17.21 21.4047H11.727C11.4945 21.4051 11.2677 21.3331 11.078 21.1987L5.25101 17.0867V13.2467C5.25082 13.1482 5.27017 13.0507 5.30793 12.9597C5.34569 12.8687 5.40112 12.7861 5.47101 12.7167L7.76601 10.4217C7.83601 10.3517 7.87601 10.2557 7.87601 10.1557V8.43571L8.62601 7.68571V12.0307H7.12601C7.02655 12.0307 6.93117 12.0702 6.86084 12.1405C6.79051 12.2109 6.75101 12.3063 6.75101 12.4057V16.1557C6.75101 16.2552 6.79051 16.3505 6.86084 16.4209C6.93117 16.4912 7.02655 16.5307 7.12601 16.5307H8.62601V18.4057H9.37601V11.1477L13.207 9.40571H15.287L18.751 11.1377V17.4677C18.7522 18.9277 18.2018 20.3343 17.21 21.4057V21.4047Z"
              fill="#49DCFF"/>
        <path d="M14.625 10.5312H13.875C13.6762 10.5315 13.4856 10.6106 13.345 10.7512C13.2044 10.8918 13.1253 11.0824 13.125 11.2812V12.7812C13.125 12.9802 13.204 13.1709 13.3447 13.3116C13.4853 13.4522 13.6761 13.5312 13.875 13.5312H14.625C14.8239 13.5312 15.0147 13.4522 15.1553 13.3116C15.296 13.1709 15.375 12.9802 15.375 12.7812V11.2812C15.375 11.0823 15.296 10.8916 15.1553 10.7509C15.0147 10.6103 14.8239 10.5312 14.625 10.5312ZM14.625 12.7812H13.875V11.2812H14.625V12.7812Z"
              fill="#49DCFF"/>
    </g>
    <defs>
        <clipPath id="clip0_3_11923">
            <rect width="24" height="24" fill="white" transform="translate(0 0.78125)"/>
        </clipPath>
    </defs>
</svg>
