<svg width="24" height="25" viewBox="0 0 24 25" fill="none" xmlns="http://www.w3.org/2000/svg">
    <path d="M2.43811 19.0439C2.47286 19.0788 2.51415 19.1064 2.55963 19.1253C2.60511 19.1442 2.65386 19.1539 2.70311 19.1539C2.75235 19.1539 2.80111 19.1442 2.84659 19.1253C2.89206 19.1064 2.93336 19.0788 2.96811 19.0439L3.26511 18.7469C3.27911 18.7306 3.29632 18.7174 3.31567 18.7081C3.33501 18.6987 3.35607 18.6935 3.37752 18.6927C3.39897 18.6919 3.42036 18.6956 3.44035 18.7034C3.46033 18.7112 3.47848 18.7231 3.49366 18.7383C3.50884 18.7535 3.52073 18.7716 3.52857 18.7916C3.53641 18.8116 3.54005 18.833 3.53925 18.8545C3.53844 18.8759 3.53322 18.897 3.5239 18.9163C3.51459 18.9356 3.50138 18.9529 3.48511 18.9669L3.18711 19.2639C3.11688 19.3342 3.07744 19.4295 3.07744 19.5289C3.07744 19.6282 3.11688 19.7235 3.18711 19.7939L4.12511 20.7319C4.19543 20.8021 4.29071 20.8417 4.39011 20.8419C4.43951 20.842 4.48846 20.8324 4.53412 20.8135C4.57977 20.7946 4.62123 20.7669 4.65611 20.7319L4.92011 20.4659C4.93455 20.4514 4.95171 20.44 4.97059 20.4323C4.98948 20.4246 5.00971 20.4207 5.03011 20.4209C5.06088 20.4207 5.091 20.4297 5.11664 20.4467C5.14228 20.4637 5.16227 20.488 5.17407 20.5164C5.18586 20.5449 5.18893 20.5761 5.18289 20.6063C5.17684 20.6365 5.16195 20.6642 5.14011 20.6859L4.87511 20.9509C4.80488 21.0212 4.76544 21.1165 4.76544 21.2159C4.76544 21.3152 4.80488 21.4105 4.87511 21.4809L7.23511 23.8409C7.30511 23.9109 7.40111 23.9509 7.50011 23.9509H7.50211C7.55173 23.9507 7.60082 23.9406 7.6465 23.9212C7.69217 23.9018 7.73352 23.8734 7.76811 23.8379L23.1431 8.08786C23.212 8.01728 23.2504 7.92239 23.2498 7.82375C23.2492 7.7251 23.2098 7.63065 23.1401 7.56086L20.8901 5.31086C20.8198 5.24064 20.7245 5.20119 20.6251 5.20119C20.5257 5.20119 20.4304 5.24064 20.3601 5.31086L20.1401 5.53086C20.1257 5.54531 20.1085 5.55677 20.0896 5.56458C20.0708 5.5724 20.0505 5.57642 20.0301 5.57642C20.0097 5.57642 19.9895 5.5724 19.9706 5.56458C19.9517 5.55677 19.9346 5.54531 19.9201 5.53086C19.9057 5.51642 19.8942 5.49927 19.8864 5.48039C19.8786 5.46152 19.8745 5.44129 19.8745 5.42086C19.8745 5.40043 19.8786 5.3802 19.8864 5.36133C19.8942 5.34246 19.9057 5.32531 19.9201 5.31086L20.1401 5.09086C20.2103 5.02055 20.2498 4.92524 20.2498 4.82586C20.2498 4.72649 20.2103 4.63117 20.1401 4.56086L19.3901 3.81086C19.3198 3.74064 19.2245 3.70119 19.1251 3.70119C19.0257 3.70119 18.9304 3.74064 18.8601 3.81086L18.6401 4.03086C18.6109 4.06003 18.5714 4.07642 18.5301 4.07642C18.4889 4.07642 18.4493 4.06003 18.4201 4.03086C18.3909 4.00169 18.3745 3.96212 18.3745 3.92086C18.3745 3.8796 18.3909 3.84003 18.4201 3.81086L18.6401 3.59086C18.7103 3.52055 18.7498 3.42524 18.7498 3.32586C18.7498 3.22649 18.7103 3.13117 18.6401 3.06086L17.1401 1.56086C17.0703 1.49115 16.9759 1.45174 16.8772 1.45118C16.7786 1.45062 16.6837 1.48895 16.6131 1.55786L0.863108 16.9329C0.827567 16.9675 0.799264 17.0088 0.779846 17.0544C0.760429 17.1001 0.750285 17.1491 0.750006 17.1987C0.749727 17.2483 0.759318 17.2975 0.77822 17.3434C0.797122 17.3892 0.824959 17.4309 0.860108 17.4659L2.43811 19.0439ZM19.1461 9.87686L19.7541 10.4859L19.1671 11.0879L18.5601 10.4809L19.1461 9.87686ZM19.6681 9.33886L20.2541 8.73486L20.8661 9.34686L20.2781 9.94886L19.6681 9.33886ZM18.0381 11.0189L18.6431 11.6249L18.0551 12.2259L17.4521 11.6219L18.0381 11.0189ZM16.9291 12.1609L17.5321 12.7629L16.9441 13.3649L16.3441 12.7649L16.9291 12.1609ZM15.8211 13.3029L16.4211 13.9019L15.8331 14.5029L15.2351 13.9059L15.8211 13.3029ZM14.7131 14.4439L15.3091 15.0399L14.7211 15.6419L14.1271 15.0479L14.7131 14.4439ZM13.6051 15.5859L14.1971 16.1789L13.6101 16.7799L13.0191 16.1899L13.6051 15.5859ZM12.4961 16.7279L13.0861 17.3179L12.4981 17.9189L11.9111 17.3319L12.4961 16.7279ZM11.3881 17.8699L11.9741 18.4559L11.3871 19.0579L10.8021 18.4729L11.3881 17.8699ZM10.2801 19.0109L10.8631 19.5929L10.2751 20.1949L9.69511 19.6149L10.2801 19.0109ZM9.17211 20.1519L9.75211 20.7319L8.97911 21.5229L8.40111 20.9459L9.17111 20.1519H9.17211ZM16.8721 2.35186L17.8461 3.32686C17.695 3.49966 17.6152 3.72343 17.6229 3.95285C17.6306 4.18227 17.7251 4.4002 17.8875 4.56251C18.0498 4.72483 18.2677 4.8194 18.4971 4.82707C18.7265 4.83475 18.9503 4.75496 19.1231 4.60386L19.3461 4.82686C19.195 4.99966 19.1152 5.22343 19.1229 5.45285C19.1306 5.68227 19.2251 5.9002 19.3875 6.06251C19.5498 6.22483 19.7677 6.3194 19.9971 6.32707C20.2265 6.33475 20.4503 6.25496 20.6231 6.10386L22.3481 7.82786L21.3901 8.80986L20.5151 7.93486C20.4804 7.89998 20.4391 7.87231 20.3936 7.85344C20.3481 7.83456 20.2993 7.82485 20.2501 7.82486H20.2471C20.1974 7.8253 20.1483 7.8356 20.1027 7.85517C20.057 7.87474 20.0157 7.90319 19.9811 7.93886L7.60611 20.6899C7.53763 20.7605 7.49967 20.8553 7.50042 20.9537C7.50116 21.0521 7.54056 21.1462 7.61011 21.2159L8.45511 22.0609L7.49711 23.0429L5.67011 21.2159C5.7967 21.0893 5.88292 20.928 5.91785 20.7525C5.95278 20.5769 5.93486 20.3949 5.86635 20.2295C5.79784 20.0641 5.68182 19.9228 5.53297 19.8233C5.38412 19.7239 5.20912 19.6708 5.03011 19.6709C4.91121 19.6706 4.79344 19.6938 4.68359 19.7393C4.57374 19.7848 4.47399 19.8516 4.39011 19.9359L3.98311 19.5289L4.01511 19.4959C4.09915 19.4118 4.16582 19.312 4.21131 19.2022C4.25679 19.0924 4.28021 18.9747 4.28021 18.8559C4.28021 18.737 4.25679 18.6193 4.21131 18.5095C4.16582 18.3997 4.09915 18.2999 4.01511 18.2159C3.93106 18.1318 3.83129 18.0651 3.72147 18.0197C3.61166 17.9742 3.49397 17.9508 3.37511 17.9508C3.25625 17.9508 3.13855 17.9742 3.02874 18.0197C2.91893 18.0651 2.81915 18.1318 2.73511 18.2159L2.70311 18.2479L1.65911 17.2039L16.8721 2.35386V2.35186Z" fill="#49DCFF"/>
    <path d="M6.48467 20.0908C6.55498 20.1611 6.65029 20.2005 6.74967 20.2005C6.84905 20.2005 6.94436 20.1611 7.01467 20.0908L12.6397 14.4658C12.7097 14.3954 12.7489 14.3001 12.7489 14.2008C12.7489 14.1015 12.7097 14.0063 12.6397 13.9358L9.63967 10.9358C9.56936 10.8656 9.47405 10.8262 9.37467 10.8262C9.27529 10.8262 9.17998 10.8656 9.10967 10.9358L3.48467 16.5608C3.41444 16.6312 3.375 16.7265 3.375 16.8258C3.375 16.9252 3.41444 17.0205 3.48467 17.0908L6.48467 20.0908ZM9.37467 11.7308L11.8447 14.2008L10.4997 15.5458L8.02967 13.0758L9.37467 11.7308ZM7.49967 13.6058L9.96967 16.0758L8.62467 17.4208L6.15467 14.9508L7.49967 13.6058ZM5.62467 15.4808L8.09467 17.9508L6.74967 19.2958L4.27967 16.8258L5.62467 15.4808ZM13.2347 13.3408C13.305 13.4111 13.4003 13.4505 13.4997 13.4505C13.599 13.4505 13.6944 13.4111 13.7647 13.3408L19.3897 7.71584C19.4597 7.6454 19.4989 7.55014 19.4989 7.45084C19.4989 7.35155 19.4597 7.25628 19.3897 7.18584L16.3897 4.18584C16.3194 4.11562 16.224 4.07617 16.1247 4.07617C16.0253 4.07617 15.93 4.11562 15.8597 4.18584L10.2347 9.81084C10.1647 9.88128 10.1254 9.97655 10.1254 10.0758C10.1254 10.1751 10.1647 10.2704 10.2347 10.3408L13.2347 13.3408ZM16.1247 4.98084L18.5947 7.45084L17.2497 8.79584L14.7797 6.32584L16.1247 4.98084ZM14.2497 6.85584L16.7197 9.32584L15.3747 10.6708L12.9047 8.20084L14.2497 6.85584ZM12.3747 8.73084L14.8447 11.2008L13.4997 12.5458L11.0297 10.0758L12.3747 8.73084Z" fill="#49DCFF"/>
</svg>
