<svg width="24" height="25" viewBox="0 0 24 25" fill="none" xmlns="http://www.w3.org/2000/svg">
    <g clip-path="url(#clip0_3_11854)">
        <g clip-path="url(#clip1_3_11854)">
            <path d="M16.533 23.3184C16.922 23.3182 17.295 23.1635 17.5701 22.8885C17.8452 22.6134 17.9998 22.2404 18 21.8514V2.28536C17.9998 1.89635 17.8452 1.52333 17.5701 1.24825C17.295 0.97318 16.922 0.818558 16.533 0.818359H7.46775C7.07874 0.818359 6.70564 0.972791 6.43042 1.24772C6.15521 1.52266 6.0004 1.8956 6 2.28461V21.8521C6.0006 22.2409 6.15537 22.6136 6.43038 22.8885C6.70539 23.1634 7.07818 23.318 7.467 23.3184H16.533ZM6.75 21.8514V2.28536C6.7502 2.09526 6.8258 1.913 6.96022 1.77858C7.09464 1.64416 7.2769 1.56856 7.467 1.56836H16.533C16.723 1.56836 16.9053 1.6438 17.0397 1.7781C17.1742 1.9124 17.2498 2.09458 17.25 2.28461V21.8521C17.2498 22.0421 17.1742 22.2243 17.0397 22.3586C16.9053 22.4929 16.723 22.5684 16.533 22.5684H7.46775C7.37353 22.5685 7.28021 22.55 7.19314 22.514C7.10606 22.478 7.02693 22.4252 6.96027 22.3586C6.89361 22.292 6.84073 22.213 6.80465 22.1259C6.76857 22.0389 6.75 21.9456 6.75 21.8514Z" fill="#49DCFF"/>
            <path d="M7.875 7.56836H16.125C16.2245 7.56836 16.3198 7.52885 16.3902 7.45852C16.4605 7.3882 16.5 7.29282 16.5 7.19336V2.69336C16.5 2.5939 16.4605 2.49852 16.3902 2.42819C16.3198 2.35787 16.2245 2.31836 16.125 2.31836H7.875C7.77554 2.31836 7.68016 2.35787 7.60983 2.42819C7.53951 2.49852 7.5 2.5939 7.5 2.69336V7.19336C7.5 7.29282 7.53951 7.3882 7.60983 7.45852C7.68016 7.52885 7.77554 7.56836 7.875 7.56836ZM15.75 6.81836H8.25V5.31836H15.75V6.81836ZM8.25 3.06836H15.75V4.56836H8.25V3.06836ZM13.3125 15.0451L12.9375 15.6939C13.295 15.9002 13.5743 16.2188 13.7323 16.6001C13.8902 16.9815 13.9179 17.4043 13.8111 17.8029C13.7043 18.2016 13.4689 18.5539 13.1414 18.8052C12.814 19.0565 12.4128 19.1927 12 19.1927C11.5872 19.1927 11.186 19.0565 10.8586 18.8052C10.5311 18.5539 10.2957 18.2016 10.1889 17.8029C10.0821 17.4043 10.1098 16.9815 10.2677 16.6001C10.4257 16.2188 10.705 15.9002 11.0625 15.6939L10.6875 15.0451C10.1871 15.334 9.79595 15.78 9.57482 16.3139C9.35368 16.8477 9.31489 17.4397 9.46444 17.9978C9.614 18.556 9.94356 19.0492 10.402 19.401C10.8604 19.7528 11.4221 19.9434 12 19.9434C12.5779 19.9434 13.1396 19.7528 13.598 19.401C14.0564 19.0492 14.386 18.556 14.5356 17.9978C14.6851 17.4397 14.6463 16.8477 14.4252 16.3139C14.204 15.78 13.8129 15.334 13.3125 15.0451Z" fill="#49DCFF"/>
            <path d="M11.625 13.9434H12.375V17.3184H11.625V13.9434ZM10.125 21.0684H11.25V21.8184H10.125V21.0684ZM12.75 21.0684H13.875V21.8184H12.75V21.0684ZM12 8.31836C11.6684 8.3196 11.3466 8.43068 11.0848 8.63422C10.8231 8.83777 10.6361 9.12231 10.5533 9.44336H8.625V10.1934H10.5533C10.6348 10.5152 10.8214 10.8006 11.0834 11.0045C11.3454 11.2084 11.668 11.3192 12 11.3192C12.332 11.3192 12.6546 11.2084 12.9166 11.0045C13.1786 10.8006 13.3652 10.5152 13.4468 10.1934H15.375V9.44336H13.4468C13.3639 9.12231 13.1769 8.83777 12.9152 8.63422C12.6534 8.43068 12.3316 8.3196 12 8.31836ZM12 10.5684C11.8011 10.5684 11.6103 10.4893 11.4697 10.3487C11.329 10.208 11.25 10.0173 11.25 9.81836C11.25 9.61945 11.329 9.42868 11.4697 9.28803C11.6103 9.14738 11.8011 9.06836 12 9.06836C12.1989 9.06836 12.3897 9.14738 12.5303 9.28803C12.671 9.42868 12.75 9.61945 12.75 9.81836C12.75 10.0173 12.671 10.208 12.5303 10.3487C12.3897 10.4893 12.1989 10.5684 12 10.5684Z" fill="#49DCFF"/>
        </g>
    </g>
    <defs>
        <clipPath id="clip0_3_11854">
            <rect width="24" height="24" fill="white" transform="translate(0 0.0683594)"/>
        </clipPath>
        <clipPath id="clip1_3_11854">
            <rect width="24" height="24" fill="white" transform="translate(0 0.0683594)"/>
        </clipPath>
    </defs>
</svg>
