<svg width="24" height="25" viewBox="0 0 24 25" fill="none" xmlns="http://www.w3.org/2000/svg">
    <g clip-path="url(#clip0_3_11867)">
        <g clip-path="url(#clip1_3_11867)">
            <path d="M23.9707 6.07173L23.9685 6.06423L22.7685 3.26448C22.7378 3.19243 22.6866 3.13099 22.6212 3.08779C22.5559 3.04459 22.4793 3.02153 22.401 3.02148H1.59825C1.52001 3.02147 1.44348 3.04441 1.37816 3.08747C1.31283 3.13054 1.26158 3.19182 1.23075 3.26373L0.03075 6.06423V6.07173C0.0138625 6.11404 0.00447215 6.15896 0.003 6.20448C0.003 6.21048 0 6.21498 0 6.22098V21.4235C0 21.644 0.17925 21.8232 0.39975 21.8232H23.6003C23.6529 21.8233 23.705 21.813 23.7536 21.7929C23.8023 21.7729 23.8465 21.7434 23.8837 21.7062C23.9209 21.6689 23.9504 21.6248 23.9705 21.5761C23.9906 21.5275 24.0008 21.4754 24.0007 21.4227V6.22173C24.0007 6.21573 23.9977 6.21123 23.9977 6.20448C23.9963 6.15903 23.9872 6.11414 23.9707 6.07173ZM1.86225 3.82173H22.137L22.9935 5.82123H1.00575L1.86225 3.82173ZM23.2005 21.023H0.79875V6.62148H23.2013L23.2005 21.023Z" fill="#49DCFF"/>
            <path d="M17.3177 12.9042C17.3928 12.9792 17.4947 13.022 17.6005 13.022H20.8007C20.8533 13.0219 20.9053 13.0115 20.9538 12.9913C21.0024 12.9711 21.0464 12.9415 21.0835 12.9042L22.2835 11.7042C22.3585 11.6292 22.4005 11.5272 22.4005 11.4215V9.42124C22.4005 9.31521 22.3584 9.21354 22.2834 9.13857C22.2084 9.0636 22.1068 9.02149 22.0007 9.02149H16.4005C16.3479 9.02139 16.2959 9.03165 16.2473 9.0517C16.1987 9.07174 16.1545 9.10117 16.1173 9.1383C16.0801 9.17543 16.0506 9.21953 16.0305 9.26808C16.0104 9.31663 16 9.36868 16 9.42124V11.4215C16 11.528 16.0427 11.6292 16.1177 11.7042L17.3177 12.9042ZM16.8002 9.82173H21.6002V11.2557L20.635 12.2217H17.7662L16.8002 11.2557V9.82173Z" fill="#49DCFF"/>
            <path d="M18.2798 10.9029C18.3149 10.8639 18.3433 10.8193 18.3638 10.7709C18.3996 10.6784 18.3998 10.5759 18.3642 10.4832C18.3287 10.3906 18.26 10.3145 18.1714 10.2697C18.0829 10.225 17.9809 10.2147 17.8852 10.241C17.7895 10.2672 17.707 10.3281 17.6538 10.4118C17.6005 10.4955 17.5803 10.5961 17.597 10.6939C17.6137 10.7917 17.6662 10.8797 17.7443 10.941C17.8223 11.0022 17.9204 11.0322 18.0194 11.0252C18.1183 11.0182 18.2111 10.9746 18.2798 10.9029ZM19.044 11.7879C19.1925 11.8517 19.3657 11.8179 19.4797 11.7039C19.515 11.665 19.5434 11.6203 19.5637 11.5719C19.5845 11.5235 19.5954 11.4715 19.5958 11.4188C19.5962 11.3662 19.5862 11.314 19.5662 11.2652C19.5462 11.2165 19.5168 11.1722 19.4795 11.135C19.4423 11.0978 19.398 11.0684 19.3493 11.0484C19.2883 11.023 19.2221 11.0131 19.1564 11.0196C19.0907 11.026 19.0276 11.0487 18.9728 11.0854C18.918 11.1222 18.8731 11.172 18.8423 11.2303C18.8114 11.2886 18.7954 11.3537 18.7957 11.4197C18.795 11.4725 18.805 11.525 18.8249 11.574C18.8449 11.6229 18.8745 11.6674 18.912 11.7047C18.9509 11.7398 18.9956 11.7679 19.044 11.7879ZM20.112 10.9029C20.1877 10.9774 20.2897 11.0191 20.3959 11.0191C20.5021 11.0191 20.604 10.9774 20.6797 10.9029C20.715 10.8639 20.7434 10.8193 20.7638 10.7709C20.7843 10.723 20.7952 10.6715 20.796 10.6194C20.7947 10.5131 20.7532 10.4113 20.6797 10.3344C20.6324 10.2884 20.5745 10.2546 20.5111 10.2359C20.4477 10.2172 20.3808 10.2142 20.316 10.2272C20.2909 10.2315 20.2667 10.2396 20.244 10.2512C20.2186 10.26 20.1944 10.2721 20.172 10.2872C20.1511 10.302 20.131 10.318 20.112 10.3352C20.0385 10.4117 19.9969 10.5133 19.9958 10.6194C19.9942 10.6719 20.0055 10.7237 20.028 10.7709C20.0483 10.8194 20.0767 10.864 20.112 10.9029ZM21.5962 16.2204H16.7963C16.7436 16.2203 16.6915 16.2306 16.6429 16.2507C16.5942 16.2708 16.55 16.3003 16.5128 16.3375C16.4756 16.3747 16.4461 16.4189 16.426 16.4675C16.4059 16.5162 16.3957 16.5683 16.3958 16.6209V19.0209C16.3958 19.2422 16.575 19.4207 16.7955 19.4207H21.5955C21.6481 19.4208 21.7001 19.4105 21.7487 19.3905C21.7973 19.3704 21.8415 19.341 21.8787 19.3039C21.9159 19.2667 21.9454 19.2226 21.9655 19.1741C21.9856 19.1255 21.996 19.0735 21.996 19.0209V16.6209C21.9961 16.5684 21.9858 16.5163 21.9658 16.4677C21.9457 16.4191 21.9163 16.375 21.8792 16.3378C21.8421 16.3006 21.798 16.2711 21.7494 16.2509C21.7009 16.2308 21.6488 16.2204 21.5962 16.2204ZM17.196 17.0207H18.7957V18.6212H17.196V17.0207ZM21.1965 18.6212H19.596V17.0207H21.1965V18.6212ZM1.99425 20.2209H3.59475V19.4207H2.39475V18.2207H1.59375V19.8204C1.59375 20.0409 1.773 20.2202 1.9935 20.2202L1.99425 20.2209ZM13.5952 9.42017H14.3962V7.81967C14.3962 7.71365 14.3541 7.61197 14.2792 7.53701C14.2042 7.46204 14.1025 7.41992 13.9965 7.41992H12.396V8.22017H13.596L13.5952 9.42017ZM2.39475 8.22017H3.59475V7.41992H1.99425C1.88823 7.41992 1.78655 7.46204 1.71158 7.53701C1.63662 7.61197 1.5945 7.71365 1.5945 7.81967V9.42092H2.39475V8.22017ZM13.5952 19.4207H12.3952V20.2202H13.9957C14.1018 20.2202 14.2034 20.1781 14.2784 20.1031C14.3534 20.0281 14.3955 19.9264 14.3955 19.8204V18.2199H13.5952V19.4207ZM7.995 7.81967C6.80831 7.81967 5.64827 8.17157 4.66158 8.83085C3.67488 9.49014 2.90585 10.4272 2.45172 11.5236C1.9976 12.6199 1.87878 13.8263 2.11029 14.9902C2.3418 16.1541 2.91324 17.2232 3.75236 18.0623C4.59147 18.9014 5.66057 19.4729 6.82446 19.7044C7.98834 19.9359 9.19474 19.8171 10.2911 19.3629C11.3875 18.9088 12.3245 18.1398 12.9838 17.1531C13.6431 16.1664 13.995 15.0064 13.995 13.8197C13.993 12.229 13.3602 10.704 12.2354 9.57922C11.1107 8.45443 9.58569 7.82166 7.995 7.81967ZM11.3745 16.6344C12.0341 15.8451 12.3955 14.8491 12.3955 13.8204C12.3955 12.7917 12.0341 11.7958 11.3745 11.0064L11.9392 10.4409C12.7494 11.3803 13.195 12.5796 13.195 13.82C13.195 15.0605 12.7494 16.2597 11.9392 17.1992L11.3745 16.6344ZM9.9945 13.8204C9.9945 14.2119 9.879 14.5952 9.6615 14.9214L9.075 14.3342C9.2355 14.0102 9.2355 13.6299 9.075 13.3067L9.66225 12.7187C9.87975 13.0457 9.9945 13.4289 9.9945 13.8204ZM5.99475 13.8204C5.99475 13.4282 6.111 13.0449 6.32775 12.7194L6.915 13.3059C6.83581 13.4657 6.79461 13.6417 6.79461 13.82C6.79461 13.9984 6.83581 14.1744 6.915 14.3342L6.32775 14.9214C6.11066 14.5953 5.9948 14.2122 5.99475 13.8204ZM7.59525 13.8204C7.59525 13.7144 7.63737 13.6127 7.71233 13.5378C7.7873 13.4628 7.88898 13.4207 7.995 13.4207C8.10102 13.4207 8.2027 13.4628 8.27767 13.5378C8.35263 13.6127 8.39475 13.7144 8.39475 13.8204C8.39475 13.9264 8.35263 14.0281 8.27767 14.1031C8.2027 14.1781 8.10102 14.2202 7.995 14.2202C7.88898 14.2202 7.7873 14.1781 7.71233 14.1031C7.63737 14.0281 7.59525 13.9264 7.59525 13.8204ZM8.50875 12.7404C8.34905 12.6613 8.17323 12.6201 7.995 12.6201C7.81677 12.6201 7.64095 12.6613 7.48125 12.7404L6.89325 12.1532C7.21943 11.9358 7.60265 11.8198 7.99463 11.8198C8.3866 11.8198 8.76982 11.9358 9.096 12.1532L8.50875 12.7404ZM7.48125 14.9004C7.8045 15.0609 8.18475 15.0609 8.50875 14.9004L9.096 15.4877C8.76983 15.7047 8.38678 15.8205 7.995 15.8205C7.60322 15.8205 7.22017 15.7047 6.894 15.4877L7.48125 14.9004ZM9.66825 11.5802C9.18617 11.2163 8.59862 11.0194 7.99463 11.0194C7.39063 11.0194 6.80308 11.2163 6.321 11.5802L5.75025 11.0094C6.38664 10.498 7.17858 10.2192 7.995 10.2192C8.81142 10.2192 9.60336 10.498 10.2397 11.0094L9.669 11.5794L9.66825 11.5802ZM5.75475 12.1464C5.39069 12.6286 5.19373 13.2163 5.19373 13.8204C5.19373 14.4246 5.39069 15.0123 5.75475 15.4944L5.184 16.0644C4.67277 15.4281 4.39411 14.6363 4.39411 13.82C4.39411 13.0038 4.67277 12.212 5.184 11.5757L5.75475 12.1464ZM6.321 16.0607C6.80308 16.4246 7.39063 16.6214 7.99463 16.6214C8.59862 16.6214 9.18617 16.4246 9.66825 16.0607L10.239 16.6307C9.60267 17.1419 8.81088 17.4206 7.99463 17.4206C7.17837 17.4206 6.38658 17.1419 5.75025 16.6307L6.321 16.0607ZM10.2353 15.4944C10.5993 15.0123 10.7963 14.4246 10.7963 13.8204C10.7963 13.2163 10.5993 12.6286 10.2353 12.1464L10.8053 11.5764C11.3165 12.2128 11.5951 13.0045 11.5951 13.8208C11.5951 14.637 11.3165 15.4288 10.8053 16.0652L10.2353 15.4944ZM11.3752 9.87542L10.809 10.4409C10.0197 9.78147 9.02389 9.4202 7.99537 9.4202C6.96686 9.4202 5.97103 9.78147 5.18175 10.4409L4.61625 9.87542C5.55574 9.06545 6.75493 8.61988 7.99537 8.61988C9.23582 8.61988 10.435 9.06545 11.3745 9.87542H11.3752ZM4.05 10.4409L4.6155 11.0064C3.95599 11.7958 3.59469 12.7918 3.59469 13.8204C3.59469 14.8491 3.95599 15.845 4.6155 16.6344L4.05 17.1992C3.24022 16.2597 2.79478 15.0607 2.79478 13.8204C2.79478 12.5801 3.24022 11.3811 4.05 10.4417V10.4409ZM4.6155 17.7647L5.181 17.1999C5.97021 17.8595 6.96607 18.2209 7.99463 18.2209C9.02318 18.2209 10.019 17.8595 10.8083 17.1999L11.3737 17.7647C10.4343 18.5744 9.23528 19.0199 7.995 19.0199C6.75472 19.0199 5.55494 18.5744 4.6155 17.7647Z" fill="#49DCFF"/>
        </g>
    </g>
    <defs>
        <clipPath id="clip0_3_11867">
            <rect width="24" height="24" fill="white" transform="translate(0 0.419922)"/>
        </clipPath>
        <clipPath id="clip1_3_11867">
            <rect width="24" height="24" fill="white" transform="translate(0 0.419922)"/>
        </clipPath>
    </defs>
</svg>
