<svg width="24" height="25" viewBox="0 0 24 25" fill="none" xmlns="http://www.w3.org/2000/svg">
<g clip-path="url(#clip0_3_11880)">
<path d="M22.8 15.1655H22.4002V9.96498C22.4 9.92214 22.3929 9.8796 22.3792 9.83898L21.9998 8.70048V3.56523C21.9998 3.24697 21.8733 2.94175 21.6483 2.71671C21.4232 2.49166 21.118 2.36523 20.7997 2.36523C20.4815 2.36523 20.1763 2.49166 19.9512 2.71671C19.7262 2.94175 19.5998 3.24697 19.5998 3.56523V8.70048L19.221 9.83898C19.2073 9.87959 19.2002 9.92213 19.2 9.96498V15.1655H13.5997V9.96498C13.5998 9.92217 13.593 9.87963 13.5795 9.83898L13.2 8.70048V3.56523C13.2 3.24697 13.0736 2.94175 12.8485 2.71671C12.6235 2.49166 12.3183 2.36523 12 2.36523C11.6817 2.36523 11.3765 2.49166 11.1515 2.71671C10.9264 2.94175 10.8 3.24697 10.8 3.56523V8.70048L10.4205 9.83898C10.407 9.87963 10.4002 9.92217 10.4002 9.96498V15.1655H4.8V9.96498C4.79977 9.92213 4.79268 9.87959 4.779 9.83898L4.40025 8.70048V3.56523C4.40025 3.24697 4.27382 2.94175 4.04878 2.71671C3.82373 2.49166 3.51851 2.36523 3.20025 2.36523C2.88199 2.36523 2.57677 2.49166 2.35172 2.71671C2.12668 2.94175 2.00025 3.24697 2.00025 3.56523V8.70048L1.62075 9.83898C1.60708 9.8796 1.59999 9.92213 1.59975 9.96498V15.1655H1.2C0.88174 15.1655 0.576516 15.2919 0.351472 15.517C0.126428 15.742 0 16.0472 0 16.3655L0 20.3652C0 20.6835 0.126428 20.9887 0.351472 21.2138C0.576516 21.4388 0.88174 21.5652 1.2 21.5652H1.59975V22.7652C1.59975 22.9865 1.779 23.165 2.00025 23.165H4.40025C4.50627 23.165 4.60795 23.1229 4.68292 23.0479C4.75788 22.9729 4.8 22.8713 4.8 22.7652V21.5652H19.2V22.7652C19.2 22.9865 19.3792 23.165 19.5998 23.165H21.9998C22.0523 23.1651 22.1044 23.1548 22.153 23.1348C22.2015 23.1147 22.2457 23.0853 22.2829 23.0482C22.3201 23.011 22.3496 22.9669 22.3697 22.9184C22.3899 22.8698 22.4003 22.8178 22.4002 22.7652V21.5652H22.8C23.1183 21.5652 23.4235 21.4388 23.6485 21.2138C23.8736 20.9887 24 20.6835 24 20.3652V16.3647C24 16.2071 23.969 16.0511 23.9087 15.9055C23.8484 15.7599 23.76 15.6276 23.6485 15.5162C23.5371 15.4048 23.4048 15.3164 23.2592 15.2561C23.1136 15.1958 22.9576 15.1647 22.8 15.1647V15.1655ZM20.3797 8.89173C20.3933 8.85085 20.4001 8.80805 20.4 8.76499V3.56523C20.4 3.45911 20.4422 3.35734 20.5172 3.2823C20.5922 3.20727 20.694 3.16511 20.8001 3.16511C20.9062 3.16511 21.008 3.20727 21.0831 3.2823C21.1581 3.35734 21.2003 3.45911 21.2003 3.56523V8.76499C21.2003 8.80773 21.207 8.85048 21.2205 8.89173L21.6 10.0302V12.7647H20.0002V10.0302L20.3797 8.89173ZM20.0002 13.565H21.6V15.1655H20.0002V13.565ZM11.5793 8.89173C11.593 8.85088 11.6001 8.80809 11.6003 8.76499V3.56523C11.6003 3.45921 11.6424 3.35754 11.7173 3.28257C11.7923 3.2076 11.894 3.16548 12 3.16548C12.106 3.16548 12.2077 3.2076 12.2827 3.28257C12.3576 3.35754 12.3998 3.45921 12.3998 3.56523V8.76499C12.3998 8.80773 12.4073 8.85048 12.4208 8.89173L12.8002 10.0302V12.7647H11.1997V10.0302L11.5793 8.89173ZM11.1997 13.565H12.8002V15.1655H11.1997V13.565ZM2.7795 8.89173C2.79302 8.85085 2.79986 8.80805 2.79975 8.76499V3.56523C2.79975 3.45911 2.84191 3.35734 2.91694 3.2823C2.99198 3.20727 3.09376 3.16511 3.19987 3.16511C3.30599 3.16511 3.40777 3.20727 3.48281 3.2823C3.55784 3.35734 3.6 3.45911 3.6 3.56523V8.76499C3.6 8.80773 3.6075 8.85048 3.62025 8.89173L3.99975 10.0302V12.7647H2.4V10.0302L2.7795 8.89173ZM2.4 13.565H3.99975V15.1655H2.4V13.565ZM3.99975 22.3655H2.4V21.566H3.99975V22.3655ZM21.6 22.3655H20.0002V21.566H21.6V22.3655ZM23.1998 20.366C23.1998 20.472 23.1576 20.5737 23.0827 20.6487C23.0077 20.7236 22.906 20.7657 22.8 20.7657H1.2C1.09398 20.7657 0.992302 20.7236 0.917334 20.6487C0.842366 20.5737 0.80025 20.472 0.80025 20.366V16.3655C0.80025 16.145 0.97875 15.9657 1.2 15.9657H22.8C23.0212 15.9657 23.1998 16.145 23.1998 16.3662V20.366Z" fill="#49DCFF"/>
<path d="M21.2 17.1621C20.8817 17.1621 20.5765 17.2885 20.3515 17.5136C20.1264 17.7386 20 18.0438 20 18.3621C20 18.6804 20.1264 18.9856 20.3515 19.2106C20.5765 19.4357 20.8817 19.5621 21.2 19.5621C21.5183 19.5621 21.8235 19.4357 22.0485 19.2106C22.2736 18.9856 22.4 18.6804 22.4 18.3621C22.4 18.0438 22.2736 17.7386 22.0485 17.5136C21.8235 17.2885 21.5183 17.1621 21.2 17.1621ZM21.2 18.7626C21.0939 18.7626 20.9921 18.7205 20.9171 18.6454C20.842 18.5704 20.7999 18.4686 20.7999 18.3625C20.7999 18.2564 20.842 18.1546 20.9171 18.0796C20.9921 18.0045 21.0939 17.9624 21.2 17.9624C21.3061 17.9624 21.4079 18.0045 21.4829 18.0796C21.558 18.1546 21.6001 18.2564 21.6001 18.3625C21.6001 18.4686 21.558 18.5704 21.4829 18.6454C21.4079 18.7205 21.3061 18.7626 21.2 18.7626ZM8 17.9639H9.2V18.7634H8V17.9639ZM10.4 17.9639H11.6V18.7634H10.4V17.9639ZM12.8 17.9639H14V18.7634H12.8V17.9639ZM15.2 17.9639H16.4V18.7634H15.2V17.9639ZM17.6 17.9639H18.8V18.7634H17.6V17.9639ZM2 17.9639H3.2V18.7634H2V17.9639Z" fill="#49DCFF"/>
</g>
<defs>
<clipPath id="clip0_3_11880">
<rect width="24" height="24" fill="white" transform="translate(0 0.763672)"/>
</clipPath>
</defs>
</svg>
