<svg width="24" height="25" viewBox="0 0 24 25" fill="none" xmlns="http://www.w3.org/2000/svg">
    <g clip-path="url(#clip0_3_11844)">
        <g clip-path="url(#clip1_3_11844)">
            <path d="M19.4739 14.5017V1.91292C19.4739 1.26042 18.9459 0.732422 18.2942 0.732422H5.70394C5.05144 0.732422 4.52344 1.26117 4.52344 1.91292V14.5017C4.52344 15.1534 5.05144 15.6814 5.70394 15.6814V22.3699C5.39085 22.3699 5.09058 22.4943 4.8692 22.7157C4.64781 22.9371 4.52344 23.2373 4.52344 23.5504C4.52344 23.8635 4.64781 24.1638 4.8692 24.3852C5.09058 24.6065 5.39085 24.7309 5.70394 24.7309H18.2942C18.6073 24.7309 18.9075 24.6065 19.1289 24.3852C19.3503 24.1638 19.4747 23.8635 19.4747 23.5504C19.4747 23.2373 19.3503 22.9371 19.1289 22.7157C18.9075 22.4943 18.6073 22.3699 18.2942 22.3699V15.6814C18.9459 15.6814 19.4739 15.1534 19.4739 14.5017ZM18.6872 23.5512C18.6872 23.7687 18.5109 23.9449 18.2942 23.9449H5.70394C5.59951 23.9449 5.49936 23.9034 5.42551 23.8296C5.35167 23.7558 5.31019 23.6556 5.31019 23.5512C5.31019 23.4467 5.35167 23.3466 5.42551 23.2727C5.49936 23.1989 5.59951 23.1574 5.70394 23.1574H18.2942C18.5117 23.1574 18.6872 23.3344 18.6872 23.5512ZM10.8047 21.8494C11.6556 22.0536 12.5447 22.036 13.3868 21.7985C14.229 21.5609 14.9962 21.1112 15.615 20.4924C16.2337 19.8737 16.6834 19.1065 16.921 18.2643C17.1586 17.4221 17.1761 16.5331 16.9719 15.6822H17.5067V22.3707H6.49069V15.6822H7.02544C6.70891 17.0013 6.92933 18.3921 7.63821 19.5486C8.34709 20.7052 9.48637 21.5328 10.8054 21.8494H10.8047ZM7.67119 16.8627C7.67152 16.4633 7.72782 16.0659 7.83844 15.6822H16.1597C16.2703 16.0659 16.3266 16.4633 16.3269 16.8627C16.3269 18.0105 15.871 19.1113 15.0593 19.9229C14.2477 20.7346 13.1469 21.1905 11.9991 21.1905C10.8512 21.1905 9.75043 20.7346 8.93879 19.9229C8.12716 19.1113 7.67119 18.0105 7.67119 16.8627ZM5.70394 14.8954C5.59964 14.8954 5.4996 14.854 5.42578 14.7804C5.35196 14.7067 5.31039 14.6067 5.31019 14.5024V1.91217C5.31019 1.69467 5.48644 1.51842 5.70394 1.51842H7.67119V4.66617C7.67561 4.76753 7.71899 4.86327 7.79228 4.93342C7.86557 5.00358 7.96311 5.04274 8.06456 5.04274C8.16602 5.04274 8.26356 5.00358 8.33684 4.93342C8.41013 4.86327 8.45351 4.76753 8.45794 4.66617V1.51842H11.6057V4.66617C11.6101 4.76753 11.6535 4.86327 11.7268 4.93342C11.8001 5.00358 11.8976 5.04274 11.9991 5.04274C12.1005 5.04274 12.1981 5.00358 12.2713 4.93342C12.3446 4.86327 12.388 4.76753 12.3924 4.66617V1.51842H15.5394V4.66617C15.5394 4.7706 15.5809 4.87075 15.6548 4.9446C15.7286 5.01844 15.8288 5.05992 15.9332 5.05992C16.0376 5.05992 16.1378 5.01844 16.2116 4.9446C16.2855 4.87075 16.3269 4.7706 16.3269 4.66617V1.51842H18.2934C18.5109 1.51842 18.6872 1.69467 18.6872 1.91217V14.5017C18.6872 14.7192 18.5109 14.8947 18.2942 14.8947L5.70394 14.8954Z" fill="#49DCFF"/>
            <path d="M11.9986 17.6497C12.1048 17.6544 12.2109 17.6375 12.3104 17.6C12.4099 17.5626 12.5008 17.5054 12.5775 17.4319C12.6543 17.3583 12.7155 17.27 12.7572 17.1723C12.799 17.0745 12.8205 16.9693 12.8205 16.863C12.8205 16.7567 12.799 16.6515 12.7572 16.5537C12.7155 16.4559 12.6543 16.3676 12.5775 16.2941C12.5008 16.2206 12.4099 16.1634 12.3104 16.126C12.2109 16.0885 12.1048 16.0716 11.9986 16.0762C11.7959 16.0851 11.6044 16.1718 11.4641 16.3184C11.3238 16.465 11.2455 16.6601 11.2455 16.863C11.2455 17.0659 11.3238 17.261 11.4641 17.4075C11.6044 17.5541 11.7959 17.6409 11.9986 17.6497ZM6.09687 14.502C6.2013 14.502 6.30146 14.4605 6.3753 14.3867C6.44914 14.3128 6.49063 14.2127 6.49063 14.1082C6.49063 14.0038 6.44914 13.9037 6.3753 13.8298C6.30146 13.756 6.2013 13.7145 6.09687 13.7145C5.99245 13.7145 5.89229 13.756 5.81845 13.8298C5.74461 13.9037 5.70312 14.0038 5.70312 14.1082C5.70312 14.2127 5.74461 14.3128 5.81845 14.3867C5.89229 14.4605 5.99245 14.502 6.09687 14.502ZM17.9004 14.502C18.0048 14.502 18.105 14.4605 18.1788 14.3867C18.2526 14.3128 18.2941 14.2127 18.2941 14.1082C18.2941 14.0038 18.2526 13.9037 18.1788 13.8298C18.105 13.756 18.0048 13.7145 17.9004 13.7145C17.7959 13.7145 17.6958 13.756 17.622 13.8298C17.5481 13.9037 17.5066 14.0038 17.5066 14.1082C17.5066 14.2127 17.5481 14.3128 17.622 14.3867C17.6958 14.4605 17.7959 14.502 17.9004 14.502ZM6.09687 2.69923C6.14998 2.70155 6.203 2.6931 6.25275 2.67437C6.3025 2.65565 6.34794 2.62705 6.38634 2.59029C6.42473 2.55354 6.45529 2.50938 6.47617 2.4605C6.49704 2.41162 6.50781 2.35901 6.50781 2.30586C6.50781 2.2527 6.49704 2.2001 6.47617 2.15122C6.45529 2.10233 6.42473 2.05818 6.38634 2.02143C6.34794 1.98467 6.3025 1.95607 6.25275 1.93734C6.203 1.91862 6.14998 1.91017 6.09687 1.91248C5.99245 1.91248 5.89229 1.95397 5.81845 2.02781C5.74461 2.10165 5.70312 2.20181 5.70312 2.30623C5.70312 2.41066 5.74461 2.51082 5.81845 2.58466C5.89229 2.6585 5.99245 2.69998 6.09687 2.69998V2.69923ZM17.9004 2.69923C17.9535 2.70155 18.0065 2.6931 18.0562 2.67437C18.106 2.65565 18.1514 2.62705 18.1898 2.59029C18.2282 2.55354 18.2588 2.50938 18.2797 2.4605C18.3005 2.41162 18.3113 2.35901 18.3113 2.30586C18.3113 2.2527 18.3005 2.2001 18.2797 2.15122C18.2588 2.10233 18.2282 2.05818 18.1898 2.02143C18.1514 1.98467 18.106 1.95607 18.0562 1.93734C18.0065 1.91862 17.9535 1.91017 17.9004 1.91248C17.7959 1.91248 17.6958 1.95397 17.622 2.02781C17.5481 2.10165 17.5066 2.20181 17.5066 2.30623C17.5066 2.41066 17.5481 2.51082 17.622 2.58466C17.6958 2.6585 17.7959 2.69998 17.9004 2.69998V2.69923Z" fill="#49DCFF"/>
        </g>
    </g>
    <defs>
        <clipPath id="clip0_3_11844">
            <rect width="24" height="24" fill="white" transform="translate(0 0.732422)"/>
        </clipPath>
        <clipPath id="clip1_3_11844">
            <rect width="24" height="24" fill="white" transform="translate(0 0.732422)"/>
        </clipPath>
    </defs>
</svg>
