<svg width="141" height="131" viewBox="0 0 141 131" fill="none" xmlns="http://www.w3.org/2000/svg">
<g clip-path="url(#clip0_570_24868)">
<g clip-path="url(#clip1_570_24868)">
<path d="M124.277 43.6094H86.8673L94.3573 21.1694C95.0218 19.1629 95.2015 17.0276 94.8817 14.9383C94.5619 12.849 93.7516 10.8652 92.5173 9.14937C91.2782 7.43842 89.6521 6.04467 87.7717 5.08188C85.8913 4.11909 83.8099 3.61453 81.6973 3.60938H70.9473C69.9688 3.60988 69.0022 3.82505 68.1158 4.23973C67.2295 4.6544 66.4449 5.25849 65.8173 6.00938L34.4873 43.6094H17.6173C10.2573 43.6094 4.27734 49.5894 4.27734 56.9494V116.949C4.27734 124.299 10.2573 130.279 17.6173 130.279H106.327C109.04 130.271 111.687 129.44 113.917 127.896C116.147 126.351 117.856 124.166 118.817 121.629L137.197 72.6194C137.476 71.8708 137.618 71.0782 137.617 70.2794V56.9494C137.617 49.5894 131.637 43.6094 124.277 43.6094ZM17.6173 56.9494H30.9473V116.949H17.6173V56.9494ZM124.277 69.0694L106.327 116.949H44.2773V52.6794L74.0673 16.9394H81.7073L71.2973 48.1694C70.9585 49.1715 70.8636 50.24 71.0206 51.2861C71.1775 52.3322 71.5818 53.3258 72.1998 54.1844C72.8178 55.0429 73.6317 55.7417 74.5739 56.2226C75.5162 56.7034 76.5595 56.9526 77.6173 56.9494H124.277V69.0694Z" fill="#151A22"/>
</g>
</g>
<defs>
<clipPath id="clip0_570_24868">
<rect width="140" height="130" fill="white" transform="translate(0.949219 0.273438)"/>
</clipPath>
<clipPath id="clip1_570_24868">
<rect width="140" height="130" fill="white" transform="translate(0.949219 0.273438)"/>
</clipPath>
</defs>
</svg>
