<svg width="161" height="161" viewBox="0 0 161 161" fill="none" xmlns="http://www.w3.org/2000/svg">
<g clip-path="url(#clip0_570_24904)">
<path d="M34.1875 120.273V145.373L44.2875 139.323L76.0375 120.273H107.527C114.877 120.273 120.857 114.293 120.857 106.943V53.6034C120.857 46.2534 114.877 40.2734 107.527 40.2734H27.5275C20.1675 40.2734 14.1875 46.2534 14.1875 53.6034V106.943C14.1875 114.293 20.1675 120.273 27.5275 120.273H34.1875ZM27.5275 53.6034H107.527V106.943H72.3475L47.5275 121.833V106.933H27.5275V53.6034Z" fill="#151A22"/>
<path d="M134.189 13.6016H54.1894C46.8394 13.6016 40.8594 19.5816 40.8594 26.9416H120.859C128.209 26.9416 134.189 32.9216 134.189 40.2716V93.6016C141.549 93.6016 147.529 87.6216 147.529 80.2716V26.9416C147.529 19.5816 141.549 13.6016 134.189 13.6016Z" fill="#151A22"/>
</g>
<defs>
<clipPath id="clip0_570_24904">
<rect width="160" height="160" fill="white" transform="translate(0.859375 0.273438)"/>
</clipPath>
</defs>
</svg>

