<svg width="161" height="161" viewBox="0 0 161 161" fill="none" xmlns="http://www.w3.org/2000/svg">
<g clip-path="url(#clip0_570_24924)">
<path fill-rule="evenodd" clip-rule="evenodd" d="M139.767 43.2115C140.407 44.1315 140.807 45.2115 140.917 46.3315C140.987 47.0515 147.317 118.111 83.6573 146.431C82.8057 146.816 81.8818 147.015 80.9473 147.015C80.0127 147.015 79.0889 146.816 78.2373 146.431C14.5773 118.101 20.9073 47.0315 20.9773 46.3315C21.0902 45.2122 21.4839 44.1395 22.122 43.213C22.7601 42.2864 23.6218 41.5361 24.6273 41.0315L77.9573 14.3615C78.884 13.8977 79.906 13.6562 80.9423 13.6562C81.9785 13.6562 83.0006 13.8977 83.9273 14.3615L137.257 41.0315C138.267 41.5315 139.137 42.2815 139.767 43.2115ZM34.0573 51.2315C33.6873 64.6115 35.8173 111.161 80.9473 132.981C125.617 111.341 128.047 64.4815 127.807 51.2215L80.9473 27.7815L34.0473 51.2315H34.0573ZM58.9973 68.9515L74.2773 84.2315L102.897 55.6115L112.327 65.0315L74.2773 103.081L49.5673 78.3715L58.9973 68.9515Z" fill="#151A22"/>
</g>
<defs>
<clipPath id="clip0_570_24924">
<rect width="160" height="160" fill="white" transform="translate(0.949219 0.328125)"/>
</clipPath>
</defs>
</svg>
