<svg width="19" height="19" viewBox="0 0 19 19" fill="none" xmlns="http://www.w3.org/2000/svg">
<path d="M9.49821 0.835938C14.2971 0.835938 18.1839 4.72279 18.1839 9.52165C18.1839 14.3205 14.2971 18.2074 9.49821 18.2074C8.35749 18.2077 7.22787 17.9833 6.17391 17.5469C5.11995 17.1106 4.16231 16.4708 3.35569 15.6642C2.54908 14.8576 1.90931 13.8999 1.47293 12.846C1.03656 11.792 0.812144 10.6624 0.8125 9.52165C0.8125 4.72279 4.69936 0.835938 9.49821 0.835938ZM10.5839 5.17879C10.5839 4.58165 10.0954 4.09308 9.49821 4.09308C8.90107 4.09308 8.4125 4.58165 8.4125 5.17879C8.4125 5.77594 8.90107 6.26451 9.49821 6.26451C10.0954 6.26451 10.5839 5.77594 10.5839 5.17879ZM10.5839 14.9502V8.43594H8.4125V14.9502H10.5839Z" fill="#5F697A"/>
</svg>