<svg width="15" height="14" viewBox="0 0 15 14" fill="none" xmlns="http://www.w3.org/2000/svg">
<g clip-path="url(#clip0_570_24027)">
<path d="M7.80242 0.671875C11.2565 0.671875 14.0541 3.46949 14.0541 6.92352C14.0541 10.3776 11.2565 13.1752 7.80242 13.1752C6.98137 13.1754 6.16832 13.0139 5.40972 12.6998C4.65112 12.3857 3.96184 11.9252 3.38127 11.3447C2.8007 10.7641 2.34022 10.0748 2.02614 9.31622C1.71205 8.55762 1.55052 7.74457 1.55078 6.92352C1.55078 3.46949 4.34839 0.671875 7.80242 0.671875ZM8.58388 3.7977C8.58388 3.3679 8.23222 3.01624 7.80242 3.01624C7.37262 3.01624 7.02097 3.3679 7.02097 3.7977C7.02097 4.2275 7.37262 4.57915 7.80242 4.57915C8.23222 4.57915 8.58388 4.2275 8.58388 3.7977ZM8.58388 10.8308V6.14206H7.02097V10.8308H8.58388Z" fill="#5F697A"/>
</g>
<defs>
<clipPath id="clip0_570_24027">
<rect width="13.6755" height="13.6755" fill="white" transform="translate(0.960938 0.0859375)"/>
</clipPath>
</defs>
</svg>
