<svg width="24" height="23" viewBox="0 0 24 23" fill="none" xmlns="http://www.w3.org/2000/svg">
  <path d="M12.007 7.48438C11.0694 7.48438 10.1701 7.85684 9.50715 8.51984C8.84415 9.18284 8.47168 10.0821 8.47168 11.0197C8.47168 11.9573 8.84415 12.8565 9.50715 13.5195C10.1701 14.1825 11.0694 14.555 12.007 14.555C12.9446 14.555 13.8438 14.1825 14.5068 13.5195C15.1698 12.8565 15.5423 11.9573 15.5423 11.0197C15.5423 10.0821 15.1698 9.18284 14.5068 8.51984C13.8438 7.85684 12.9446 7.48438 12.007 7.48438Z" fill="white" fill-opacity="0.7"/>
  <path fill-rule="evenodd" clip-rule="evenodd" d="M6.30905 1.31385C10.0902 0.895385 13.9061 0.895385 17.6873 1.31385C19.753 1.54409 21.4184 3.16777 21.661 5.23781C22.1094 9.06583 22.1094 12.933 21.661 16.761C21.4184 18.8311 19.753 20.4547 17.6884 20.6861C13.9068 21.1046 10.0906 21.1046 6.30905 20.6861C4.24335 20.4547 2.57795 18.8311 2.33537 16.7621C1.88691 12.9337 1.88691 9.06619 2.33537 5.23781C2.57795 3.16777 4.24335 1.54409 6.30905 1.31385ZM17.4371 4.483C17.1486 4.483 16.8719 4.59742 16.6679 4.8011C16.4639 5.00478 16.3493 5.28102 16.3493 5.56907C16.3493 5.85711 16.4639 6.13336 16.6679 6.33703C16.8719 6.54071 17.1486 6.65514 17.4371 6.65514C17.7256 6.65514 18.0023 6.54071 18.2063 6.33703C18.4103 6.13336 18.5249 5.85711 18.5249 5.56907C18.5249 5.28102 18.4103 5.00478 18.2063 4.8011C18.0023 4.59742 17.7256 4.483 17.4371 4.483ZM6.83119 10.9994C6.83119 9.63121 7.37556 8.31904 8.34456 7.35157C9.31356 6.3841 10.6278 5.84058 11.9982 5.84058C13.3685 5.84058 14.6828 6.3841 15.6518 7.35157C16.6208 8.31904 17.1651 9.63121 17.1651 10.9994C17.1651 12.3676 16.6208 13.6798 15.6518 14.6473C14.6828 15.6147 13.3685 16.1582 11.9982 16.1582C10.6278 16.1582 9.31356 15.6147 8.34456 14.6473C7.37556 13.6798 6.83119 12.3676 6.83119 10.9994Z" fill="white" fill-opacity="0.7"/>
</svg>