<svg width="19" height="18" viewBox="0 0 19 18" fill="none" xmlns="http://www.w3.org/2000/svg">
<path d="M8.33594 8.16406V5.66406L12.5026 8.9974L8.33594 12.3307V9.83073H0.835938V8.16406H8.33594ZM2.05077 11.4974H3.82054C4.80951 13.9406 7.20479 15.6641 10.0026 15.6641C13.6845 15.6641 16.6693 12.6793 16.6693 8.9974C16.6693 5.3155 13.6845 2.33073 10.0026 2.33073C7.20479 2.33073 4.80951 4.0542 3.82054 6.4974H2.05077C3.11266 3.11647 6.27124 0.664062 10.0026 0.664062C14.6049 0.664062 18.3359 4.39502 18.3359 8.9974C18.3359 13.5997 14.6049 17.3307 10.0026 17.3307C6.27124 17.3307 3.11266 14.8783 2.05077 11.4974Z" fill="#49DCFF"/>
</svg>
