<svg width="133" height="100" viewBox="0 0 62 55" fill="none" xmlns="http://www.w3.org/2000/svg">
<path d="M30.2304 0.199084C29.293 0.347136 28.4606 1.07259 28.2195 1.95349C28.1456 2.23479 28.1456 2.81589 28.2195 3.10089C28.4295 3.89297 29.1297 4.5666 29.9543 4.77387C30.5416 4.91822 31.2573 4.82939 31.8174 4.53699C32.3503 4.25569 32.8559 3.65238 33.0076 3.10459C33.066 2.89362 33.0737 2.80109 33.0232 2.91583C33.0037 2.96024 32.9882 2.96765 32.9882 2.93803C32.9843 2.90842 32.9376 2.97135 32.8832 3.07498C32.4981 3.81154 31.5723 4.23719 30.7283 4.06693C29.1336 3.74862 28.4957 1.9646 29.5614 0.813498C29.7753 0.584018 30.0904 0.391551 30.4677 0.269409C30.7828 0.165772 30.7828 0.165772 30.6116 0.165772C30.5144 0.165772 30.3432 0.180578 30.2304 0.199084Z" fill="#FEFFFF"/>
<path d="M20.7939 10.0299C19.382 12.3654 18.2307 14.2937 18.2307 14.3159C18.2307 14.3345 18.429 14.7897 18.6663 15.3264L19.1019 16.3035L18.5185 17.2696L17.9351 18.2393L19.1681 18.2504C20.1171 18.2578 20.4089 18.2467 20.4439 18.2134C20.4711 18.1875 21.7002 16.1592 23.1822 13.7052C24.6641 11.2513 25.8971 9.22298 25.9244 9.19337C25.971 9.14895 26.6712 9.14895 30.6969 9.18596C35.1856 9.22668 35.4189 9.23038 35.4734 9.297C35.5045 9.33402 36.7375 11.366 38.2156 13.8089L40.8994 18.2578H42.0974C43.2254 18.2578 43.2915 18.2541 43.2565 18.1912C43.2371 18.1579 42.9415 17.6619 42.5953 17.0956C42.0507 16.1925 41.9768 16.0518 42.0157 15.9852C42.0391 15.9408 42.2841 15.5263 42.5603 15.0599L43.0621 14.2123L42.3658 13.0612C41.9846 12.4283 40.8605 10.5665 39.8687 8.92317L38.0639 5.93624L37.7527 5.91773C37.3093 5.88442 33.4508 5.87331 33.4508 5.90292C33.4508 5.91403 33.5986 6.16942 33.7775 6.46552C33.9603 6.76162 34.1276 7.03922 34.1548 7.08363L34.1976 7.16506L30.7047 7.13545C28.7793 7.12065 27.204 7.10584 27.1963 7.09844C27.1885 7.09104 27.3518 6.80974 27.558 6.46922C27.7603 6.125 27.9236 5.8437 27.9197 5.84C27.912 5.8363 26.8851 5.81779 25.6326 5.80669L23.3572 5.78078L20.7939 10.0299Z" fill="#FEFFFF"/>
<path d="M2.68773 25.8274C1.20967 28.5479 0 30.7798 0 30.7872C0 30.7983 0.73514 30.8057 1.63364 30.8057H3.26729L3.74182 29.9063L4.22025 29.0105L7.34362 28.9994L10.4631 28.992L10.926 29.8988L11.3888 30.8057H13.0108C14.0027 30.8057 14.625 30.7909 14.6172 30.7724C14.6133 30.7501 13.427 28.5183 11.9839 25.8126L9.36233 20.8862H7.36695H5.37547L2.68773 25.8274ZM8.3627 24.9798C8.90725 26.0273 9.36233 26.9008 9.36622 26.9193C9.374 26.9415 8.61941 26.9563 7.33584 26.9563C5.97836 26.9563 5.28989 26.9452 5.28989 26.9193C5.28989 26.8601 7.31639 23.07 7.34362 23.0737C7.35918 23.0737 7.81815 23.9324 8.3627 24.9798Z" fill="#FEFFFF"/>
<path d="M18.8647 25.8459V30.8057H20.265H21.6653L21.6731 27.06L21.6847 23.3143L23.7657 27.0489L25.8466 30.7872H27.033H28.2193L30.3391 27.0304L32.459 23.2735L32.4707 27.0415L32.4784 30.8057H33.8593H35.2401V25.8459V20.8862H32.918H30.592L28.8611 24.1322C27.9081 25.9126 27.1146 27.3709 27.0952 27.3709C27.0758 27.3709 26.2706 25.9089 25.3099 24.1285L23.5556 20.8862H21.2102H18.8647V25.8459Z" fill="#FEFFFF"/>
<path d="M40.1021 25.8459V30.8057H41.5996H43.0971V25.8459V20.8862H41.5996H40.1021V25.8459Z" fill="#FEFFFF"/>
<path d="M47.959 25.8459V30.8057H49.3398H50.7206V27.1044C50.7206 25.0687 50.7323 23.4031 50.7517 23.4031C50.7673 23.4068 52.0742 25.065 53.6573 27.097L56.5356 30.7872L58.8811 30.7983L61.2226 30.8057V25.8459V20.8862H59.8418H58.461V24.569C58.461 26.5936 58.4493 28.2518 58.4338 28.2518C58.4143 28.2518 57.1074 26.5936 55.5243 24.569L52.646 20.8862H50.3044H47.959V25.8459Z" fill="#FEFFFF"/>
<path d="M9.14837 32.9039C9.06279 33.0445 8.74773 33.5664 8.44045 34.0698C7.90368 34.9581 7.88424 34.9877 7.76366 34.9914C6.7368 35.0062 5.77995 35.0617 5.73716 35.1024C5.64381 35.2024 0.773997 43.2934 0.785665 43.3341C0.793445 43.36 1.24464 44.1151 1.7853 45.0182C2.65269 46.4506 2.78493 46.6467 2.82772 46.5875C2.85495 46.5542 3.01053 46.2988 3.1739 46.0249C3.46951 45.529 3.47729 45.5253 3.53563 45.6104C3.56675 45.6548 4.37579 46.9873 5.32875 48.5677L7.06353 51.4399L6.37506 51.4584L5.68271 51.4769L6.63178 53.0463C7.15299 53.9087 7.5964 54.6304 7.61196 54.6452C7.62752 54.66 10.1052 54.6785 13.1158 54.6859L18.5885 54.697L19.2225 53.7791L19.8565 52.8649L25.6326 52.8871C28.8104 52.9019 33.7697 52.9204 36.6597 52.9352L41.9107 52.9574L42.5253 53.8272C42.8637 54.3047 43.1515 54.7155 43.1671 54.7378C43.1865 54.7711 44.4545 54.7896 47.9046 54.8081L52.615 54.834L53.7857 53.1869C54.4314 52.2801 54.9604 51.525 54.9604 51.5139C54.9604 51.5028 54.6453 51.4954 54.2564 51.4954C53.7079 51.4954 53.5563 51.4843 53.5718 51.4473C53.6107 51.3548 57.5742 45.814 57.5976 45.8177C57.6131 45.8177 57.7648 46.0545 57.936 46.3432C58.1071 46.6319 58.2588 46.8614 58.2744 46.8577C58.2899 46.854 58.7839 46.1693 59.3751 45.3365C60.3086 44.0262 60.4487 43.8153 60.4137 43.7449C60.3903 43.7042 59.1651 41.6685 57.6909 39.2257L55.0071 34.7841L53.9024 34.7952L52.8017 34.8063L52.1599 33.733L51.5181 32.6559H50.6157C50.1178 32.6559 49.7094 32.6707 49.7094 32.6892C49.7094 32.704 51.1719 35.1394 52.9572 38.0968C54.7426 41.0541 56.2051 43.4821 56.2051 43.4969C56.2051 43.5118 54.9293 45.3106 53.3734 47.498L50.5379 51.4769H43.7155H36.8931L36.8697 51.1068C36.8464 50.6885 36.8153 50.5997 36.6364 50.4072C36.4263 50.1778 36.2552 50.1185 35.7534 50.0963L35.3139 50.0778L35.2322 49.9298C35.1077 49.6929 35.0144 49.4042 34.9833 49.1636L34.9561 48.9415H38.6084C42.1985 48.9415 42.2647 48.9378 42.4358 48.8638C42.6497 48.7713 42.8053 48.6343 42.9142 48.4419L42.9998 48.2938V41.2429V34.1919L42.8909 34.018C42.7703 33.8218 42.5836 33.67 42.3697 33.596C42.2491 33.5553 40.2148 33.5479 30.6308 33.5442C22.7621 33.5442 18.993 33.5553 18.8958 33.5812C18.678 33.6404 18.4329 33.8366 18.324 34.0439L18.2229 34.2252L18.2112 41.1651C18.2034 48.812 18.1879 48.3271 18.4407 48.6232C18.5107 48.701 18.6546 48.8046 18.7635 48.8527L18.9619 48.9415H22.6104H26.2588L26.2355 49.0785C26.2005 49.2821 26.0644 49.7077 25.9749 49.9113L25.8971 50.0889H25.5393C25.3448 50.0889 25.1075 50.1074 25.0142 50.1297C24.7691 50.1815 24.5357 50.348 24.4152 50.5627C24.3218 50.7256 24.3101 50.7848 24.3101 51.1031V51.4584H16.9821H9.65791L7.28134 47.5239C5.97443 45.3624 4.87755 43.5414 4.84255 43.4821L4.77642 43.3711L8.0087 38.0265C9.78626 35.0876 11.241 32.6744 11.241 32.667C11.241 32.6596 10.8053 32.6559 10.2686 32.6559H9.30006L9.14837 32.9039ZM41.5801 40.5211V46.0175H30.5919H19.6037V40.5211V35.0247H30.5919H41.5801V40.5211ZM30.8603 47.1612C31.0042 47.2538 31.0742 47.3722 31.0781 47.5276C31.082 47.9348 30.5919 48.1236 30.2846 47.8349C30.0629 47.6239 30.1446 47.2389 30.4363 47.1279C30.5685 47.0724 30.7436 47.0872 30.8603 47.1612Z" fill="#FEFFFF"/>
</svg>