<svg id="Logo" width="153" height="119" viewBox="0 0 153 119" fill="none" xmlns="http://www.w3.org/2000/svg">
<path d="M105.23 24.201C104.293 24.3491 103.461 25.0745 103.219 25.9554C103.146 26.2367 103.146 26.8178 103.219 27.1028C103.43 27.8949 104.13 28.5686 104.954 28.7758C105.542 28.9202 106.257 28.8313 106.817 28.5389C107.35 28.2576 107.856 27.6543 108.008 27.1065C108.066 26.8956 108.074 26.803 108.023 26.9178C108.004 26.9622 107.988 26.9696 107.988 26.94C107.984 26.9104 107.938 26.9733 107.883 27.0769C107.498 27.8135 106.572 28.2391 105.728 28.0689C104.134 27.7506 103.496 25.9666 104.561 24.8155C104.775 24.586 105.09 24.3935 105.468 24.2714C105.783 24.1677 105.783 24.1677 105.612 24.1677C105.514 24.1677 105.343 24.1825 105.23 24.201Z" fill="#FEFFFF"/>
<path d="M95.7944 34.0299C94.3825 36.3654 93.2312 38.2937 93.2312 38.3159C93.2312 38.3345 93.4295 38.7897 93.6668 39.3264L94.1024 40.3035L93.519 41.2696L92.9355 42.2393L94.1686 42.2504C95.1176 42.2578 95.4093 42.2467 95.4444 42.2134C95.4716 42.1875 96.7007 40.1592 98.1827 37.7052C99.6646 35.2513 100.898 33.223 100.925 33.1934C100.972 33.149 101.672 33.149 105.697 33.186C110.186 33.2267 110.419 33.2304 110.474 33.297C110.505 33.334 111.738 35.366 113.216 37.8089L115.9 42.2578H117.098C118.226 42.2578 118.292 42.2541 118.257 42.1912C118.238 42.1579 117.942 41.6619 117.596 41.0956C117.051 40.1925 116.977 40.0518 117.016 39.9852C117.04 39.9408 117.285 39.5263 117.561 39.0599L118.063 38.2123L117.366 37.0612C116.985 36.4283 115.861 34.5665 114.869 32.9232L113.064 29.9362L112.753 29.9177C112.31 29.8844 108.451 29.8733 108.451 29.9029C108.451 29.914 108.599 30.1694 108.778 30.4655C108.961 30.7616 109.128 31.0392 109.155 31.0836L109.198 31.1651L105.705 31.1355C103.78 31.1206 102.205 31.1058 102.197 31.0984C102.189 31.091 102.352 30.8097 102.558 30.4692C102.761 30.125 102.924 29.8437 102.92 29.84C102.912 29.8363 101.886 29.8178 100.633 29.8067L98.3577 29.7808L95.7944 34.0299Z" fill="#FEFFFF"/>
<path d="M77.6877 49.8265C76.2097 52.5469 75 54.7788 75 54.7862C75 54.7973 75.7351 54.8047 76.6336 54.8047H78.2673L78.7418 53.9053L79.2202 53.0096L82.3436 52.9985L85.4631 52.9911L85.926 53.8979L86.3888 54.8047H88.0108C89.0027 54.8047 89.625 54.7899 89.6172 54.7714C89.6133 54.7492 88.427 52.5173 86.9839 49.8117L84.3623 44.8852H82.367H80.3755L77.6877 49.8265ZM83.3627 48.9789C83.9072 50.0263 84.3623 50.8998 84.3662 50.9183C84.374 50.9405 83.6194 50.9554 82.3358 50.9554C80.9784 50.9554 80.2899 50.9442 80.2899 50.9183C80.2899 50.8591 82.3164 47.069 82.3436 47.0727C82.3592 47.0727 82.8182 47.9314 83.3627 48.9789Z" fill="#FEFFFF"/>
<path d="M93.8643 49.845V54.8047H95.2645H96.6648L96.6726 51.059L96.6842 47.3133L98.7652 51.0479L100.846 54.7862H102.032H103.219L105.339 51.0294L107.459 47.2726L107.47 51.0405L107.478 54.8047H108.859H110.24V49.845V44.8852H107.917H105.591L103.861 48.1313C102.908 49.9116 102.114 51.3699 102.095 51.3699C102.075 51.3699 101.27 49.9079 100.309 48.1276L98.5551 44.8852H96.2097H93.8643V49.845Z" fill="#FEFFFF"/>
<path d="M115.103 49.845V54.8047H116.6H118.098V49.845V44.8852H116.6H115.103V49.845Z" fill="#FEFFFF"/>
<path d="M122.959 49.845V54.8047H124.34H125.721V51.1034C125.721 49.0677 125.732 47.4021 125.752 47.4021C125.767 47.4058 127.074 49.064 128.657 51.096L131.536 54.7862L133.881 54.7973L136.223 54.8047V49.845V44.8852H134.842H133.461V48.568C133.461 50.5926 133.449 52.2508 133.434 52.2508C133.414 52.2508 132.107 50.5926 130.524 48.568L127.646 44.8852H125.304H122.959V49.845Z" fill="#FEFFFF"/>
<path d="M84.1489 56.9058C84.0633 57.0465 83.7482 57.5684 83.4409 58.0717C82.9042 58.96 82.8847 58.9896 82.7641 58.9933C81.7373 59.0082 80.7804 59.0637 80.7376 59.1044C80.6443 59.2043 75.7745 67.2953 75.7862 67.336C75.7939 67.362 76.2451 68.117 76.7858 69.0201C77.6532 70.4525 77.7854 70.6487 77.8282 70.5895C77.8554 70.5562 78.011 70.3008 78.1744 70.0269C78.47 69.5309 78.4778 69.5272 78.5361 69.6123C78.5672 69.6568 79.3763 70.9892 80.3292 72.5697L82.064 75.4419L81.3755 75.4604L80.6832 75.4789L81.6323 77.0482C82.1535 77.9106 82.5969 78.6324 82.6125 78.6472C82.628 78.662 85.1057 78.6805 88.1163 78.6879L93.589 78.699L94.223 77.7811L94.857 76.8669L100.633 76.8891C103.811 76.9039 108.77 76.9224 111.66 76.9372L116.911 76.9594L117.526 77.8292C117.864 78.3067 118.152 78.7175 118.168 78.7397C118.187 78.773 119.455 78.7915 122.905 78.81L127.615 78.8359L128.786 77.1889C129.432 76.2821 129.961 75.527 129.961 75.5159C129.961 75.5048 129.646 75.4974 129.257 75.4974C128.708 75.4974 128.557 75.4863 128.572 75.4493C128.611 75.3567 132.575 69.8159 132.598 69.8196C132.614 69.8196 132.765 70.0565 132.936 70.3452C133.108 70.6339 133.259 70.8634 133.275 70.8597C133.29 70.856 133.784 70.1712 134.376 69.3384C135.309 68.0282 135.449 67.8172 135.414 67.7469C135.391 67.7062 134.166 65.6705 132.691 63.2276L130.008 58.7861L128.903 58.7972L127.802 58.8083L127.16 57.7349L126.519 56.6578H125.616C125.118 56.6578 124.71 56.6726 124.71 56.6912C124.71 56.706 126.172 59.1414 127.958 62.0987C129.743 65.0561 131.206 67.4841 131.206 67.4989C131.206 67.5137 129.93 69.3125 128.374 71.5L125.538 75.4789H118.716H111.894L111.87 75.1087C111.847 74.6905 111.816 74.6017 111.637 74.4092C111.427 74.1797 111.256 74.1205 110.754 74.0983L110.314 74.0798L110.233 73.9317C110.108 73.6949 110.015 73.4062 109.984 73.1656L109.957 72.9435H113.609C117.199 72.9435 117.265 72.9398 117.436 72.8658C117.65 72.7732 117.806 72.6363 117.915 72.4438L118 72.2958V65.2448V58.1939L117.891 58.0199C117.771 57.8237 117.584 57.672 117.37 57.598C117.25 57.5573 115.215 57.5498 105.631 57.5461C97.7626 57.5461 93.9935 57.5573 93.8963 57.5832C93.6784 57.6424 93.4334 57.8385 93.3245 58.0458L93.2234 58.2272L93.2117 65.1671C93.2039 72.8139 93.1883 72.3291 93.4412 72.6252C93.5112 72.7029 93.6551 72.8065 93.764 72.8547L93.9624 72.9435H97.6109H101.259L101.236 73.0804C101.201 73.284 101.065 73.7097 100.975 73.9132L100.898 74.0909H100.54C100.345 74.0909 100.108 74.1094 100.015 74.1316C99.7696 74.1834 99.5362 74.35 99.4156 74.5647C99.3223 74.7275 99.3106 74.7867 99.3106 75.105V75.4604H91.9826H84.6584L82.2818 71.5259C80.9749 69.3643 79.878 67.5433 79.843 67.4841L79.7769 67.3731L83.0092 62.0284C84.7868 59.0896 86.2415 56.6763 86.2415 56.6689C86.2415 56.6615 85.8058 56.6578 85.2691 56.6578H84.3005L84.1489 56.9058ZM116.581 64.5231V70.0195H105.592H94.6042V64.5231V59.0267H105.592H116.581V64.5231ZM105.861 71.1632C106.005 71.2557 106.075 71.3741 106.079 71.5296C106.082 71.9367 105.592 72.1255 105.285 71.8368C105.063 71.6258 105.145 71.2409 105.437 71.1299C105.569 71.0743 105.744 71.0891 105.861 71.1632Z" fill="#FEFFFF"/>
</svg>