<svg width="13" height="13" viewBox="0 0 13 13" fill="none" xmlns="http://www.w3.org/2000/svg">
<path d="M12.4847 11.1699L11.6267 12.028C11.5133 12.1405 11.3601 12.2037 11.2004 12.2037C11.0406 12.2037 10.8874 12.1405 10.7741 12.028L3.59025 4.85686C3.39351 4.91385 3.19005 4.94435 2.98525 4.94756C2.60019 4.94725 2.22077 4.85503 1.87853 4.67856C1.53629 4.50209 1.24112 4.24647 1.01757 3.93296C0.794008 3.61944 0.64852 3.25709 0.593197 2.87603C0.537875 2.49497 0.574317 2.1062 0.699493 1.74206L2.23512 3.27859L2.55622 2.9575L3.41428 2.09943L3.73538 1.77834L2.19884 0.242711C2.56298 0.117535 2.95175 0.0810928 3.33281 0.136415C3.71387 0.191738 4.07622 0.337226 4.38974 0.560784C4.70325 0.784343 4.95887 1.07951 5.13534 1.42175C5.31181 1.76399 5.40403 2.14341 5.40434 2.52847C5.40113 2.73327 5.37063 2.93673 5.31364 3.13347L12.4847 10.3173C12.5973 10.4306 12.6605 10.5839 12.6605 10.7436C12.6605 10.9033 12.5973 11.0566 12.4847 11.1699ZM0.742124 10.3173C0.629572 10.4306 0.566406 10.5839 0.566406 10.7436C0.566406 10.9033 0.629572 11.0566 0.742124 11.1699L1.60019 12.028C1.71353 12.1405 1.86677 12.2037 2.0265 12.2037C2.18623 12.2037 2.33948 12.1405 2.45281 12.028L5.76081 8.72631L4.04921 7.01563L0.742124 10.3173ZM11.4507 0.109375L9.03253 1.31937V2.52847L7.72003 3.84096L8.92912 5.05006L10.2416 3.73756H11.4507L12.6607 1.31937L11.4507 0.109375Z" fill="#49DCFF"/>
</svg>
