<svg width="19" height="19" viewBox="0 0 19 19" fill="none" xmlns="http://www.w3.org/2000/svg">
<circle cx="9.60938" cy="9.15625" r="9" fill="#49DCFF"/>
<path d="M9.56357 12.7713C8.82446 12.7713 8.18809 12.6039 7.65447 12.2692C7.12417 11.9311 6.7165 11.4654 6.43146 10.8722C6.14643 10.2789 6.00391 9.59943 6.00391 8.83381C6.00391 8.05824 6.14974 7.37382 6.44141 6.78054C6.73307 6.18395 7.14406 5.71828 7.67436 5.38352C8.20466 5.04877 8.82943 4.88139 9.54865 4.88139C10.1287 4.88139 10.6457 4.98911 11.0998 5.20455C11.5539 5.41667 11.9201 5.71496 12.1985 6.09943C12.4802 6.4839 12.6476 6.933 12.7006 7.44673H11.2539C11.1744 7.08878 10.9921 6.78054 10.707 6.52202C10.4253 6.26349 10.0475 6.13423 9.57351 6.13423C9.15921 6.13423 8.79628 6.24361 8.48473 6.46236C8.17649 6.67779 7.9362 6.98603 7.76385 7.38707C7.5915 7.7848 7.50533 8.25545 7.50533 8.79901C7.50533 9.35582 7.58984 9.83641 7.75888 10.2408C7.92791 10.6451 8.16655 10.9583 8.47479 11.1804C8.78634 11.4025 9.15258 11.5135 9.57351 11.5135C9.85523 11.5135 10.1104 11.4621 10.3391 11.3594C10.5711 11.2533 10.765 11.1025 10.9208 10.907C11.0799 10.7114 11.1909 10.4761 11.2539 10.201H12.7006C12.6476 10.6948 12.4869 11.1357 12.2184 11.5234C11.9499 11.9112 11.5903 12.2161 11.1396 12.4382C10.6921 12.6603 10.1668 12.7713 9.56357 12.7713Z" fill="#1C232E"/>
</svg>
