<svg width="23" height="22" viewBox="0 0 23 22" fill="none" xmlns="http://www.w3.org/2000/svg">
<path d="M11.5 22C17.5766 22 22.5 17.0766 22.5 11C22.5 4.92342 17.5766 0 11.5 0C5.42342 0 0.5 4.92342 0.5 11C0.5 17.0766 5.42342 22 11.5 22ZM5.53342 10.7617L16.1393 6.67242C16.6315 6.49458 17.0614 6.7925 16.9019 7.53683L16.9028 7.53592L15.097 16.0435C14.9632 16.6467 14.6048 16.7933 14.1033 16.5092L11.3533 14.4824L10.0269 15.7603C9.88025 15.9069 9.7565 16.0307 9.47233 16.0307L9.66758 13.2321L14.7642 8.62767C14.9861 8.43242 14.7148 8.32242 14.4223 8.51675L8.12392 12.4823L5.40875 11.6353C4.81933 11.4482 4.8065 11.0458 5.53342 10.7617Z" fill="white" fill-opacity="0.7"/>
</svg>
