<svg width="23" height="22" viewBox="0 0 23 22" fill="none" xmlns="http://www.w3.org/2000/svg">
<path d="M11.7773 22C17.8525 22 22.7773 17.0751 22.7773 11C22.7773 4.92487 17.8525 0 11.7773 0C5.70221 0 0.777344 4.92487 0.777344 11C0.777344 17.0751 5.70221 22 11.7773 22Z" fill="white" fill-opacity="0.7"/>
<path d="M15.6609 7.11999C14.7455 6.19429 13.5294 5.62634 12.232 5.5187C10.9346 5.41105 9.64152 5.77079 8.58614 6.53297C7.53075 7.29516 6.78264 8.40956 6.47687 9.67497C6.1711 10.9404 6.32783 12.2734 6.91875 13.4334L6.3398 16.2442C6.3336 16.2723 6.33336 16.3013 6.3391 16.3295C6.34483 16.3577 6.35641 16.3843 6.37309 16.4078C6.39698 16.4432 6.43112 16.4705 6.47095 16.486C6.51079 16.5016 6.55441 16.5045 6.59599 16.4946L9.34599 15.8418C10.5028 16.4173 11.8263 16.5635 13.0808 16.2546C14.3354 15.9457 15.4396 15.2016 16.197 14.1549C16.9543 13.1081 17.3157 11.8266 17.2167 10.5383C17.1178 9.2501 16.5649 8.03879 15.6565 7.11999H15.6609ZM14.8011 13.9762C14.1681 14.6081 13.3529 15.0257 12.4702 15.1703C11.5875 15.3149 10.6817 15.1793 9.88006 14.7824L9.49506 14.5913L7.80599 14.9908V14.9691L8.16204 13.2655L7.97388 12.895C7.56402 12.0912 7.4193 11.1783 7.5605 10.2872C7.70169 9.39604 8.12154 8.57255 8.7598 7.93486C9.56122 7.13427 10.6477 6.68458 11.7805 6.68458C12.9132 6.68458 13.9997 7.13427 14.8011 7.93486L14.8199 7.96091C15.6109 8.76404 16.0525 9.84722 16.0484 10.9745C16.0444 12.1017 15.595 13.1817 14.7982 13.9791L14.8011 13.9762Z" fill="#1C232E"/>
<path d="M14.6549 12.7389C14.448 13.0646 14.1194 13.4626 13.7098 13.5625C12.9861 13.7361 11.8847 13.5625 10.5053 12.2873L10.488 12.2714C9.2881 11.1511 8.96968 10.2176 9.0406 9.47799C9.08257 9.05681 9.43283 8.6776 9.7281 8.42865C9.77504 8.38907 9.83059 8.36101 9.89031 8.34673C9.95004 8.33245 10.0123 8.33234 10.072 8.3464C10.1318 8.36047 10.1875 8.38832 10.2346 8.42773C10.2816 8.46714 10.3189 8.51702 10.3432 8.57339L10.7876 9.57786C10.8166 9.64252 10.8275 9.71385 10.819 9.78421C10.8106 9.85458 10.7832 9.92134 10.7398 9.97733L10.514 10.2668C10.4671 10.3269 10.4391 10.3996 10.4337 10.4757C10.4283 10.5517 10.4457 10.6277 10.4836 10.6938C10.6981 11.0099 10.9547 11.2952 11.2464 11.5419C11.5602 11.8439 11.9161 12.0989 12.303 12.2989C12.3736 12.3274 12.4511 12.3342 12.5256 12.3184C12.6 12.3027 12.6682 12.2652 12.7213 12.2106L12.9803 11.9472C13.0296 11.8942 13.0926 11.8559 13.1624 11.8364C13.2321 11.817 13.3059 11.8173 13.3755 11.8372L14.432 12.1397C14.4919 12.1567 14.5469 12.1876 14.5926 12.2299C14.6384 12.2721 14.6735 12.3245 14.6952 12.3829C14.7169 12.4412 14.7246 12.5038 14.7176 12.5657C14.7106 12.6276 14.6891 12.6869 14.6549 12.7389Z" fill="#1C232E"/>
</svg>
