<!-- <svg width="31" height="49" viewBox="0 0 31 49" fill="none" xmlns="http://www.w3.org/2000/svg">
<g clip-path="url(#clip0_1724_5223)">
<g clip-path="url(#clip1_1724_5223)">
<path d="M14.6 24.0312C15.4 24.0312 16 23.6313 16.3 23.0312L19.9 16.5312C20 16.3312 20 16.2313 20 16.0312C20 15.8312 20 15.7313 19.9 15.5312C19.8 15.4313 19.7 15.2312 19.5 15.1312C19.4 15.0312 19.2 15.0312 19 15.0312H4.2L3.3 13.0312H0V15.0312H2L5.6 22.6313L4.3 25.0312C3.6 26.3313 4.5 28.0312 6.1 28.0312H18.1V26.0312H6L7.1 24.0312H14.6ZM5.2 17.0312H17.3L14.5 22.0312H7.5L5.2 17.0312ZM6 29.0312C4.9 29.0312 4 29.9312 4 31.0312C4 32.1313 4.9 33.0312 6 33.0312C7.1 33.0312 8 32.1313 8 31.0312C8 29.9312 7.1 29.0312 6 29.0312ZM16 29.0312C14.9 29.0312 14 29.9312 14 31.0312C14 32.1313 14.9 33.0312 16 33.0312C17.1 33.0312 18 32.1313 18 31.0312C18 29.9312 17.1 29.0312 16 29.0312Z" fill="#49DCFF"/>
</g>
</g>
<rect x="12" y="1.96875" width="18" height="18" rx="9" fill="#1C232E"/>
<rect x="12" y="1.96875" width="18" height="18" rx="9" stroke="#49DCFF" stroke-width="2"/>
<path d="M21.4854 14.6776C20.9503 14.6776 20.4946 14.532 20.1182 14.2408C19.7417 13.9472 19.4541 13.5223 19.2552 12.9659C19.0564 12.4072 18.9569 11.7325 18.9569 10.9418C18.9569 10.1558 19.0564 9.48461 19.2552 8.92827C19.4565 8.36955 19.7453 7.94342 20.1217 7.64986C20.5005 7.35393 20.955 7.20597 21.4854 7.20597C22.0157 7.20597 22.469 7.35393 22.8454 7.64986C23.2242 7.94342 23.5131 8.36955 23.7119 8.92827C23.9131 9.48461 24.0138 10.1558 24.0138 10.9418C24.0138 11.7325 23.9143 12.4072 23.7155 12.9659C23.5166 13.5223 23.229 13.9472 22.8525 14.2408C22.4761 14.532 22.0204 14.6776 21.4854 14.6776ZM21.4854 13.8963C22.0157 13.8963 22.4276 13.6406 22.7211 13.1293C23.0147 12.6179 23.1615 11.8887 23.1615 10.9418C23.1615 10.312 23.094 9.7758 22.9591 9.3331C22.8265 8.89039 22.6347 8.55303 22.3838 8.32102C22.1352 8.08902 21.8357 7.97301 21.4854 7.97301C20.9598 7.97301 20.549 8.23224 20.2531 8.75071C19.9572 9.26681 19.8092 9.99716 19.8092 10.9418C19.8092 11.5715 19.8755 12.1065 20.0081 12.5469C20.1407 12.9872 20.3312 13.3222 20.5798 13.5518C20.8308 13.7815 21.1326 13.8963 21.4854 13.8963Z" fill="#49DCFF"/>
<defs>
<clipPath id="clip0_1724_5223">
<rect width="20" height="35.94" fill="white" transform="translate(0 13.0312)"/>
</clipPath>
<clipPath id="clip1_1724_5223">
<rect width="20" height="20" fill="white" transform="translate(0 13.0312)"/>
</clipPath>
</defs>
</svg> -->

<svg width="20" height="36" viewBox="0 0 20 36" fill="none" xmlns="http://www.w3.org/2000/svg">
<g clip-path="url(#clip0_1949_5224)">
<g clip-path="url(#clip1_1949_5224)">
<path d="M14.6 11.0312C15.4 11.0312 16 10.6313 16.3 10.0312L19.9 3.53125C20 3.33125 20 3.23125 20 3.03125C20 2.83125 20 2.73125 19.9 2.53125C19.8 2.43125 19.7 2.23125 19.5 2.13125C19.4 2.03125 19.2 2.03125 19 2.03125H4.2L3.3 0.03125H0V2.03125H2L5.6 9.63125L4.3 12.0312C3.6 13.3313 4.5 15.0312 6.1 15.0312H18.1V13.0312H6L7.1 11.0312H14.6ZM5.2 4.03125H17.3L14.5 9.03125H7.5L5.2 4.03125ZM6 16.0312C4.9 16.0312 4 16.9312 4 18.0312C4 19.1313 4.9 20.0312 6 20.0312C7.1 20.0312 8 19.1313 8 18.0312C8 16.9312 7.1 16.0312 6 16.0312ZM16 16.0312C14.9 16.0312 14 16.9312 14 18.0312C14 19.1313 14.9 20.0312 16 20.0312C17.1 20.0312 18 19.1313 18 18.0312C18 16.9312 17.1 16.0312 16 16.0312Z" fill="#49DCFF"/>
</g>
</g>
<defs>
<clipPath id="clip0_1949_5224">
<rect width="20" height="35.94" fill="white" transform="translate(0 0.03125)"/>
</clipPath>
<clipPath id="clip1_1949_5224">
<rect width="20" height="20" fill="white" transform="translate(0 0.03125)"/>
</clipPath>
</defs>
</svg>
