<svg width="62" height="55" viewBox="0 0 62 55" fill="none" xmlns="http://www.w3.org/2000/svg">
<path d="M30.2304 0.201037C29.293 0.349089 28.4606 1.07454 28.2195 1.95545C28.1456 2.23674 28.1456 2.81785 28.2195 3.10284C28.4295 3.89492 29.1297 4.56855 29.9543 4.77583C30.5416 4.92018 31.2573 4.83134 31.8174 4.53894C32.3503 4.25765 32.8559 3.65434 33.0076 3.10655C33.066 2.89557 33.0737 2.80304 33.0232 2.91778C33.0037 2.9622 32.9882 2.9696 32.9882 2.93999C32.9843 2.91038 32.9376 2.9733 32.8832 3.07694C32.4981 3.81349 31.5723 4.23914 30.7283 4.06888C29.1336 3.75057 28.4957 1.96655 29.5614 0.815451C29.7753 0.585971 30.0904 0.393504 30.4677 0.271362C30.7828 0.167726 30.7828 0.167726 30.6116 0.167726C30.5144 0.167726 30.3432 0.182531 30.2304 0.201037Z" fill="#FEFFFF"/>
<path d="M20.7944 10.0299C19.3825 12.3654 18.2312 14.2937 18.2312 14.3159C18.2312 14.3345 18.4295 14.7897 18.6668 15.3264L19.1024 16.3035L18.519 17.2696L17.9355 18.2393L19.1686 18.2504C20.1176 18.2578 20.4093 18.2467 20.4444 18.2134C20.4716 18.1875 21.7007 16.1592 23.1827 13.7052C24.6646 11.2513 25.8976 9.22298 25.9248 9.19337C25.9715 9.14895 26.6716 9.14895 30.6974 9.18596C35.186 9.22668 35.4194 9.23038 35.4739 9.297C35.505 9.33402 36.738 11.366 38.2161 13.8089L40.8999 18.2578H42.0979C43.2259 18.2578 43.292 18.2541 43.257 18.1912C43.2376 18.1579 42.942 17.6619 42.5958 17.0956C42.0512 16.1925 41.9773 16.0518 42.0162 15.9852C42.0396 15.9408 42.2846 15.5263 42.5608 15.0599L43.0625 14.2123L42.3663 13.0612C41.9851 12.4283 40.861 10.5665 39.8692 8.92317L38.0644 5.93624L37.7532 5.91773C37.3098 5.88442 33.4513 5.87331 33.4513 5.90292C33.4513 5.91403 33.5991 6.16942 33.778 6.46552C33.9608 6.76162 34.1281 7.03922 34.1553 7.08363L34.1981 7.16506L30.7052 7.13545C28.7798 7.12065 27.2045 7.10584 27.1967 7.09844C27.189 7.09104 27.3523 6.80974 27.5585 6.46922C27.7607 6.125 27.9241 5.8437 27.9202 5.84C27.9124 5.8363 26.8856 5.81779 25.6331 5.80669L23.3577 5.78078L20.7944 10.0299Z" fill="#FEFFFF"/>
<path d="M2.68773 25.8265C1.20967 28.5469 0 30.7788 0 30.7862C0 30.7973 0.73514 30.8047 1.63364 30.8047H3.26729L3.74182 29.9053L4.22025 29.0096L7.34362 28.9985L10.4631 28.9911L10.926 29.8979L11.3888 30.8047H13.0108C14.0027 30.8047 14.625 30.7899 14.6172 30.7714C14.6133 30.7492 13.427 28.5173 11.9839 25.8117L9.36233 20.8852H7.36695H5.37547L2.68773 25.8265ZM8.3627 24.9789C8.90725 26.0263 9.36233 26.8998 9.36622 26.9183C9.374 26.9405 8.61941 26.9554 7.33584 26.9554C5.97836 26.9554 5.28989 26.9442 5.28989 26.9183C5.28989 26.8591 7.31639 23.069 7.34362 23.0727C7.35918 23.0727 7.81815 23.9314 8.3627 24.9789Z" fill="#FEFFFF"/>
<path d="M18.8643 25.845V30.8047H20.2645H21.6648L21.6726 27.059L21.6842 23.3133L23.7652 27.0479L25.8461 30.7862H27.0325H28.2188L30.3387 27.0294L32.4585 23.2726L32.4702 27.0405L32.478 30.8047H33.8588H35.2396V25.845V20.8852H32.9175H30.5915L28.8606 24.1313C27.9076 25.9116 27.1142 27.3699 27.0947 27.3699C27.0753 27.3699 26.2701 25.9079 25.3094 24.1276L23.5551 20.8852H21.2097H18.8643V25.845Z" fill="#FEFFFF"/>
<path d="M40.1025 25.845V30.8047H41.6H43.0976V25.845V20.8852H41.6H40.1025V25.845Z" fill="#FEFFFF"/>
<path d="M47.959 25.845V30.8047H49.3398H50.7206V27.1034C50.7206 25.0677 50.7323 23.4021 50.7517 23.4021C50.7673 23.4058 52.0742 25.064 53.6573 27.096L56.5356 30.7862L58.8811 30.7973L61.2226 30.8047V25.845V20.8852H59.8418H58.461V24.568C58.461 26.5926 58.4493 28.2508 58.4338 28.2508C58.4143 28.2508 57.1074 26.5926 55.5243 24.568L52.646 20.8852H50.3044H47.959V25.845Z" fill="#FEFFFF"/>
<path d="M9.14885 32.9058C9.06328 33.0465 8.74822 33.5684 8.44094 34.0717C7.90417 34.96 7.88472 34.9896 7.76415 34.9933C6.73728 35.0082 5.78044 35.0637 5.73765 35.1044C5.6443 35.2043 0.774485 43.2953 0.786154 43.336C0.793933 43.362 1.24513 44.117 1.78579 45.0201C2.65318 46.4525 2.78542 46.6487 2.82821 46.5895C2.85544 46.5562 3.01102 46.3008 3.17439 46.0269C3.47 45.5309 3.47778 45.5272 3.53612 45.6123C3.56724 45.6568 4.37628 46.9892 5.32924 48.5697L7.06401 51.4419L6.37555 51.4604L5.6832 51.4789L6.63226 53.0482C7.15347 53.9106 7.59689 54.6324 7.61245 54.6472C7.62801 54.662 10.1057 54.6805 13.1163 54.6879L18.589 54.699L19.223 53.7811L19.857 52.8669L25.6331 52.8891C28.8109 52.9039 33.7702 52.9224 36.6602 52.9372L41.9112 52.9594L42.5258 53.8292C42.8642 54.3067 43.152 54.7175 43.1675 54.7397C43.187 54.773 44.455 54.7915 47.9051 54.81L52.6154 54.8359L53.7862 53.1889C54.4319 52.2821 54.9609 51.527 54.9609 51.5159C54.9609 51.5048 54.6458 51.4974 54.2569 51.4974C53.7084 51.4974 53.5567 51.4863 53.5723 51.4493C53.6112 51.3567 57.5747 45.8159 57.5981 45.8196C57.6136 45.8196 57.7653 46.0565 57.9365 46.3452C58.1076 46.6339 58.2593 46.8634 58.2749 46.8597C58.2904 46.856 58.7844 46.1712 59.3756 45.3384C60.3091 44.0282 60.4492 43.8172 60.4142 43.7469C60.3908 43.7062 59.1656 41.6705 57.6914 39.2276L55.0076 34.7861L53.9029 34.7972L52.8022 34.8083L52.1604 33.7349L51.5186 32.6578H50.6162C50.1183 32.6578 49.7099 32.6726 49.7099 32.6912C49.7099 32.706 51.1724 35.1414 52.9577 38.0987C54.7431 41.0561 56.2056 43.4841 56.2056 43.4989C56.2056 43.5137 54.9298 45.3125 53.3739 47.5L50.5384 51.4789H43.716H36.8936L36.8702 51.1087C36.8469 50.6905 36.8158 50.6017 36.6369 50.4092C36.4268 50.1797 36.2557 50.1205 35.7539 50.0983L35.3144 50.0798L35.2327 49.9317C35.1082 49.6949 35.0149 49.4062 34.9838 49.1656L34.9565 48.9435H38.6089C42.199 48.9435 42.2651 48.9398 42.4363 48.8658C42.6502 48.7732 42.8058 48.6363 42.9147 48.4438L43.0003 48.2958V41.2448V34.1939L42.8914 34.0199C42.7708 33.8237 42.5841 33.672 42.3702 33.598C42.2496 33.5573 40.2153 33.5498 30.6313 33.5461C22.7626 33.5461 18.9935 33.5573 18.8963 33.5832C18.6784 33.6424 18.4334 33.8385 18.3245 34.0458L18.2234 34.2272L18.2117 41.1671C18.2039 48.8139 18.1883 48.3291 18.4412 48.6252C18.5112 48.7029 18.6551 48.8065 18.764 48.8547L18.9624 48.9435H22.6109H26.2593L26.236 49.0804C26.201 49.284 26.0648 49.7097 25.9754 49.9132L25.8976 50.0909H25.5397C25.3453 50.0909 25.108 50.1094 25.0146 50.1316C24.7696 50.1834 24.5362 50.35 24.4156 50.5647C24.3223 50.7275 24.3106 50.7867 24.3106 51.105V51.4604H16.9826H9.65839L7.28183 47.5259C5.97492 45.3643 4.87804 43.5433 4.84304 43.4841L4.77691 43.3731L8.00919 38.0284C9.78675 35.0896 11.2415 32.6763 11.2415 32.6689C11.2415 32.6615 10.8058 32.6578 10.2691 32.6578H9.30055L9.14885 32.9058ZM41.5806 40.5231V46.0195H30.5924H19.6042V40.5231V35.0267H30.5924H41.5806V40.5231ZM30.8608 47.1632C31.0047 47.2557 31.0747 47.3741 31.0786 47.5296C31.0825 47.9367 30.5924 48.1255 30.2851 47.8368C30.0634 47.6258 30.1451 47.2409 30.4368 47.1299C30.569 47.0743 30.7441 47.0891 30.8608 47.1632Z" fill="#FEFFFF"/>
</svg>
