<svg width="18" height="19" viewBox="0 0 18 19" fill="none" xmlns="http://www.w3.org/2000/svg">
<g clip-path="url(#clip0_1724_5219)">
<g clip-path="url(#clip1_1724_5219)">
<path d="M17.9991 16.5327L12.7991 11.3327C13.7991 9.93266 14.0991 8.13266 13.8991 6.43266C13.5991 4.73266 12.6991 3.13266 11.3991 2.03266C10.0991 0.932663 8.39907 0.332663 6.59907 0.432663C4.89907 0.532663 3.19907 1.23266 1.99907 2.43266C0.799069 3.63266 -0.000930439 5.33266 -0.000930439 7.03266C-0.10093 8.73266 0.49907 10.4327 1.59907 11.8327C2.69907 13.1327 4.19907 14.0327 5.99907 14.3327C7.69907 14.6327 9.49907 14.2327 10.8991 13.2327L15.9991 18.5327L17.9991 16.5327ZM1.99907 7.53266C1.99907 4.73266 4.19907 2.53266 6.99907 2.53266C9.79907 2.53266 11.9991 4.73266 11.9991 7.53266C11.9991 10.3327 9.79907 12.5327 6.99907 12.5327C4.19907 12.5327 1.99907 10.3327 1.99907 7.53266Z" fill="#49DCFF"/>
</g>
</g>
<defs>
<clipPath id="clip0_1724_5219">
<rect width="18" height="18" fill="white" transform="translate(0 0.53125)"/>
</clipPath>
<clipPath id="clip1_1724_5219">
<rect width="18" height="18" fill="white" transform="translate(0 0.53125)"/>
</clipPath>
</defs>
</svg>
