<svg width="15" height="25" viewBox="0 0 15 25" fill="none" xmlns="http://www.w3.org/2000/svg">
<g clip-path="url(#clip0_1724_5249)">
<g clip-path="url(#clip1_1724_5249)">
<path d="M7.30957 10C6.64653 10 6.01064 9.73661 5.5418 9.26777C5.07296 8.79893 4.80957 8.16304 4.80957 7.5C4.80957 6.83696 5.07296 6.20107 5.5418 5.73223C6.01064 5.26339 6.64653 5 7.30957 5C7.97261 5 8.6085 5.26339 9.07734 5.73223C9.54618 6.20107 9.80957 6.83696 9.80957 7.5C9.80957 8.16304 9.54618 8.79893 9.07734 9.26777C8.6085 9.73661 7.97261 10 7.30957 10ZM7.30957 0.5C5.45305 0.5 3.67258 1.2375 2.35982 2.55025C1.04707 3.86301 0.30957 5.64348 0.30957 7.5C0.30957 12.75 7.30957 20.5 7.30957 20.5C7.30957 20.5 14.3096 12.75 14.3096 7.5C14.3096 5.64348 13.5721 3.86301 12.2593 2.55025C10.9466 1.2375 9.16609 0.5 7.30957 0.5Z" fill="white"/>
</g>
</g>
<defs>
<clipPath id="clip0_1724_5249">
<rect width="14" height="24" fill="white" transform="translate(0.30957 0.5)"/>
</clipPath>
<clipPath id="clip1_1724_5249">
<rect width="14" height="20" fill="white" transform="translate(0.30957 0.5)"/>
</clipPath>
</defs>
</svg>
